<?xml version="1.0" standalone="no"?>
<!DOCTYPE svg PUBLIC "-//W3C//DTD SVG 1.1//EN" "http://www.w3.org/Graphics/SVG/1.1/DTD/svg11.dtd" >
<svg xmlns="http://www.w3.org/2000/svg">
<metadata></metadata>
<defs>
<font id="sanelmaregular" horiz-adv-x="720" >
<font-face units-per-em="2048" ascent="1536" descent="-512" />
<missing-glyph horiz-adv-x="348" />
<glyph horiz-adv-x="0" />
<glyph horiz-adv-x="682" />
<glyph unicode=" "  horiz-adv-x="348" />
<glyph unicode="&#x09;" horiz-adv-x="348" />
<glyph unicode="&#xa0;" horiz-adv-x="348" />
<glyph unicode="!" horiz-adv-x="516" d="M124 116q3 34 13.5 65.5t36.5 54t59 22.5q26 0 57 -11.5t58.5 -39t28.5 -64.5q-4 -57 -32 -106t-77 -49q-35 0 -75.5 16t-59.5 55q-12 23 -9 57zM201 459q39 290 91 543t85 253q40 0 101.5 -26.5t78.5 -52.5q-28 -39 -86 -302.5t-88 -498.5q-32 -5 -73.5 1t-75.5 28 t-33 55z" />
<glyph unicode="&#x22;" horiz-adv-x="577" d="M145 874q1 2 24.5 108t37 178.5t10.5 90.5q7 9 30 10t49 -5t48.5 -22.5t26.5 -37.5q10 -51 -45.5 -181t-106.5 -153q-23 -8 -44 -3t-30 15zM371 874q1 4 12.5 59t19.5 93.5t18 91t14.5 87t2.5 46.5q9 9 33 10t50 -5t48.5 -22.5t26.5 -37.5q6 -32 -17 -105.5t-63 -143.5 t-76 -85q-20 -8 -40 -3t-29 15z" />
<glyph unicode="#" horiz-adv-x="909" d="M83 459.5q0 32.5 21 40.5q18 -5 129 6q2 21 9.5 62t9.5 53q-16 -1 -39 -3t-29 -2q-35 0 -60 52q-24 49 -10 76q5 11 17 12q25 -6 150 8q55 272 98 272q19 0 67.5 -16.5t65.5 -40.5q-25 -40 -66 -199q62 9 127 15q55 270 99 270q19 0 67.5 -16.5t65.5 -40.5 q-25 -36 -66 -197q54 4 70 4q18 0 36 -37.5t21.5 -70.5t-6.5 -39q-23 7 -153 0l-23 -115q61 6 98 6q18 0 36.5 -39t22 -73t-6.5 -41q-29 7 -175 -3q-34 -222 -14 -264q-40 -7 -87 17.5t-56 54.5q-10 38 6 178q-54 -4 -141 -16q-35 -221 -15 -262q-40 -7 -87 17t-56 54 q-10 34 6 176q-54 -4 -57 -4q-28 0 -51.5 36.5t-23.5 69zM391 522l135 15l19 116l-131 -14q-20 -98 -23 -117z" />
<glyph unicode="$" horiz-adv-x="714" d="M76 264q0 48 57 90.5t98 42.5q11 0 26 -4.5t15 -11.5q-13 -7 -32 -19.5t-50.5 -42t-31.5 -49.5q0 -26 53 -26q51 0 113 10q29 214 34 246q-39 8 -68 16t-62 23.5t-54 35t-35 50.5t-14 69q0 56 31.5 121t79 120t106.5 98t113 59q17 92 22 92q24 0 59 -11.5t35 -25.5 l-12 -55q20 -8 27 -15q36 -6 71 -19t67 -43t32 -69q0 -65 -50 -139t-98 -74q-13 0 -24 10.5t-13 22.5q21 12 37.5 54.5t16.5 90.5q0 13 -9 54q-40 -3 -84 -19l-59 -332q39 -5 68.5 -16.5t58 -36.5t44 -71t15.5 -111q0 -94 -80.5 -168t-189.5 -109l-18 -131q-13 -13 -42 7.5 t-30 50.5q-2 6 2 55q-10 -2 -29 -2q-18 0 -33.5 2.5t-27 5.5t-22 9.5t-17 11.5t-13 13.5t-10 13t-7.5 14t-5 13t-3.5 12t-2.5 9.5q-55 34 -55 78zM295 678q0 -28 21 -40t61 -15q13 94 41 251q-55 -46 -89 -101.5t-34 -94.5zM418 285q59 27 93 64t34 77q0 34 -94 55z" />
<glyph unicode="%" horiz-adv-x="1038" d="M86 84q0 37 90 165t215.5 285.5t248.5 311.5t200.5 263t60.5 120q0 43 33 15q32 -29 51 -75q6 -13 6 -22q1 -25 -86 -141.5t-211 -269t-249 -306t-213.5 -274.5t-90.5 -152q-25 -8 -40 21t-15 59zM154 870q-9 97 21.5 190.5t77.5 146.5t89 53q55 0 118.5 -26.5 t78.5 -45.5q39 -34 43 -113t-21 -158t-83.5 -139.5t-133.5 -60.5q-64 0 -124 44.5t-66 108.5zM299 881q0 -68 37 -68q39 0 77 96q40 101 37 186q-2 64 -34 64q-34 0 -73 -91q-45 -103 -44 -187zM506 154q-7 74 9.5 147.5t46 125t65 84t65.5 32.5q56 0 120 -26.5t77 -45.5 q32 -27 42.5 -84.5t-3 -122.5t-42 -125t-79.5 -99.5t-111 -39.5q-65 0 -124.5 44.5t-65.5 109.5zM649 162q1 -66 37 -66q39 0 77 96q40 101 37 186q-2 64 -34 64q-34 0 -73 -92q-44 -104 -44 -188z" />
<glyph unicode="&#x26;" horiz-adv-x="1054" d="M-4 299q0 92 66 176.5t180 167.5q-104 175 -107 264q-2 51 26 106t73.5 99t98.5 80t103.5 56t85.5 20q44 0 107.5 -27.5t75.5 -52.5q61 -26 112 -83.5t55 -131.5q2 -37 -10.5 -73.5t-42.5 -73t-59 -65t-81.5 -66t-86.5 -60.5t-96 -62q23 -28 50.5 -60t63.5 -72.5 t56 -63.5q79 85 128 161.5t46 116.5q11 17 54 -6.5t81.5 -63t38.5 -63.5q0 -31 -65.5 -113.5t-162.5 -170.5q118 -136 146 -172q5 -16 -9.5 -29.5t-40 -21.5t-53.5 -11.5t-54 1t-38 15.5q-15 13 -96 99q-183 -131 -311 -131q-127 0 -230.5 92t-103.5 219zM154 236 q0 -61 32 -94t84 -33q99 0 260 137q-96 118 -180 231q-94 -66 -145 -123.5t-51 -117.5zM326 868q0 -49 51 -133q174 113 215 144q122 93 119 161q0 36 -30 61t-69 38q-128 -46 -208.5 -124t-77.5 -147z" />
<glyph unicode="'" horiz-adv-x="352" d="M145 874q1 2 24.5 108t37 178.5t10.5 90.5q7 9 30 10t49 -5t48.5 -22.5t26.5 -37.5q10 -51 -45.5 -181t-106.5 -153q-23 -8 -44 -3t-30 15z" />
<glyph unicode="(" horiz-adv-x="524" d="M113.5 360q-2.5 204 52.5 412q35 129 100.5 243t132 174.5t111.5 51.5t110 -60t46 -69q-3 -2 -7 -4q-27 19 -72 -11t-95 -98q-107 -139 -166 -376q-60 -247 -29 -447q27 -216 127 -280q4 -31 -31 -26q-52 8 -132 75q-73 61 -95 114q-50 97 -52.5 301z" />
<glyph unicode=")" horiz-adv-x="573" d="M-35 -11q2 2 4 3q63 -34 164 114q105 160 152 383q48 240 12 449q-38 218 -137 276q-4 29 27 27q50 -3 136 -69q76 -58 103 -111q53 -96 60 -300.5t-42 -414.5q-29 -130 -89.5 -246.5t-124.5 -179.5t-109 -55q-43 8 -109 58q-67 49 -47 66z" />
<glyph unicode="*" horiz-adv-x="778" d="M148 740q-14 36 2 67q4 6 8 10q20 18 200 113q-155 125 -184 133q-8 6 7.5 28t45 42t54.5 20q18 0 151 -119q54 227 39 240q-1 21 47 -1q54 -25 75 -57q7 -10 7 -18q0 -16 -39 -164q184 101 195 121q7 5 24.5 -18.5t28.5 -52t0 -35.5q-33 -31 -250 -131 q173 -154 189 -140q18 -13 -23 -37q-51 -30 -93 -26q-13 1 -20 6q-16 9 -114 92q-61 -230 -9 -250q2 -24 -23 -14q-34 15 -65 66q-32 53 -32 110q0 33 16 115q-48 -22 -84 -40t-65.5 -34t-44 -27t-11.5 -16q-20 -14 -32 17z" />
<glyph unicode="+" horiz-adv-x="987" d="M98.5 579.5q-1.5 36.5 20.5 45.5q5 -30 272 -4q25 132 55 219.5t56 87.5q21 0 78.5 -17t74.5 -41q-27 -39 -75 -227q199 23 241 23q12 0 24.5 -18.5t20.5 -45t13.5 -53t5 -45t-7.5 -19.5q-49 13 -332 -2q-24 -119 -32.5 -211t3.5 -127q-41 -7 -98 18t-66 54 q-14 42 15 254q-153 -10 -191 -10q-27 0 -51.5 41t-26 77.5z" />
<glyph unicode="," horiz-adv-x="417" d="M45 -141q31 0 78.5 166.5t40.5 203.5q0 26 56 4q62 -26 97 -67q16 -18 17 -33q4 -78 -78 -181q-69 -86 -136 -113q-57 -23 -75 20z" />
<glyph unicode="-" horiz-adv-x="798" d="M83 609q4 20 21 22q7 -25 92 -27t226 7.5t188 9.5q22 0 45 -45t28 -84t-7 -46q-28 9 -99.5 10t-142.5 -3t-149 -8.5t-105 -4.5q-37 0 -72 65q-33 63 -25 104z" />
<glyph unicode="." horiz-adv-x="456" d="M139 122q3 42 30.5 78t68.5 36q25 0 55 -10.5t55.5 -36.5t26.5 -60q0 -59 -27.5 -106.5t-79.5 -47.5q-18 0 -40 5.5t-47 23t-34 43.5q-11 33 -8 75z" />
<glyph unicode="/" horiz-adv-x="456" d="M-10 147q5 71 106.5 347.5t215 524t145.5 238.5q40 -9 92 -52t61 -75q-27 -22 -114 -186.5t-178 -361.5t-157.5 -381.5t-54.5 -237.5q-44 8 -73 43t-38 73t-5 68z" />
<glyph unicode="0" horiz-adv-x="843" d="M74 426q0 194 50.5 370t134.5 283t177 107q34 0 96 -18.5t91 -41.5q57 -5 106.5 -30t63.5 -43q67 -64 67 -301q0 -131 -28.5 -263t-79.5 -242.5t-131.5 -179.5t-174.5 -69q-186 0 -279 114.5t-93 313.5zM262 385q0 -270 117 -270q83 0 151.5 94.5t104 237.5t35.5 298 q0 97 -13 168.5t-47 116.5t-86 43q-68 -23 -129.5 -132.5t-97 -260.5t-35.5 -295z" />
<glyph unicode="1" horiz-adv-x="528" d="M61 676q52 55 106 130.5t85.5 129t83.5 147.5t70 125q17 2 48 -8t38 -33q77 -29 98 -63q-39 -58 -113 -534t-59 -568q-69 -6 -126.5 21t-60.5 69q-4 60 22.5 272.5t63.5 423.5q-121 -190 -186 -190q-31 0 -49.5 24t-20.5 54z" />
<glyph unicode="2" horiz-adv-x="802" d="M37.5 126q-11.5 39 7.5 52q130 86 282 249t252.5 318.5t96.5 225.5q-4 80 -100 54q-92 -25 -202 -118q-107 -91 -123 -159q-1 -2 -1 -3q-15 -12 -39.5 16.5t-42.5 69.5t-18 66q0 32 37 81.5t92 96t128 80t136 33.5q61 0 106.5 -19t91.5 -75q48 -37 75 -94t26 -121 q1 -108 -154.5 -317t-335.5 -359q210 35 295 35q17 0 35.5 -29.5t28.5 -66.5t13.5 -71.5t-9.5 -43.5q-14 20 -87.5 20t-158.5 -11t-189 -22.5t-157 -11.5q-16 0 -45 42.5t-40.5 81.5z" />
<glyph unicode="3" horiz-adv-x="749" d="M9 158q3 29 26 35q33 -40 97.5 -52t136.5 4.5t137.5 49.5t108 88t40.5 116q-5 44 -45 60t-125 -2q-37 -11 -45 -11q-28 0 -59 65t-31 93q93 23 190 88.5t159.5 145t59.5 139.5q-2 64 -109 41q-102 -21 -212 -94q-101 -66 -102 -112v-5q-25 -16 -48.5 9.5t-36 66 t-12.5 73.5q-2 49 69.5 105.5t163 92.5t152.5 36q67 0 123.5 -35t79.5 -104q27 -27 52.5 -91.5t29.5 -119.5q3 -65 -75 -145.5t-189 -151.5q66 -32 111 -98t49 -160q2 -56 -31.5 -113t-93.5 -102.5t-149 -74t-189 -28.5q-124 0 -193 85q-46 55 -40 106z" />
<glyph unicode="4" horiz-adv-x="833" d="M27 459q34 35 246.5 311t301.5 401q20 6 50 -2q7 15 14 15q38 0 93.5 -27t70.5 -53q-22 -32 -59 -218t-70 -415q64 6 104 6q18 0 32 -28t19.5 -63t2.5 -68t-15 -42q-21 27 -166 27q-28 -253 -20 -301q-69 -6 -126.5 21t-60.5 69q-2 39 15 203q-72 -4 -156.5 -11 t-135 -11.5t-56.5 -4.5q-24 0 -62.5 88.5t-21.5 102.5zM217 436q97 2 260 17q26 199 68 415q-174 -240 -328 -432z" />
<glyph unicode="5" horiz-adv-x="743" d="M17 180q1 22 14 27q43 -38 104 -50.5t122.5 -1t122.5 42t106.5 73t71.5 97.5t20 111q-5 41 -24 61.5t-43 23.5t-62.5 -8t-68.5 -25t-73 -37q-16 -9 -61.5 20.5t-85.5 71t-41 63.5q0 16 80 373q-17 24 -26.5 52.5t-7.5 49t17 21.5q3 0 18 1t25 1l4 27q16 15 51 9.5 t74 -24.5q281 27 355 27q28 0 51.5 -52t24.5 -97t-19 -52q-42 23 -383 -2q-42 -175 -59 -289q71 23 122 23q43 0 77.5 -6.5t70 -25t57.5 -58t27 -97.5q5 -10 13 -28t21 -72.5t13 -107.5q0 -58 -39.5 -119t-103 -109.5t-151.5 -80t-179 -31.5q-120 0 -192 93q-44 57 -43 105z " />
<glyph unicode="6" horiz-adv-x="768" d="M68 322q0 139 44.5 297t110.5 282t145.5 206.5t145.5 82.5q64 0 120 -28.5t56 -55.5q0 -4 -2.5 -8t-5.5 -6l-2 -2q-68 0 -141 -71t-130.5 -176.5t-101.5 -232.5q96 148 199 148q18 0 26 -2q103 0 169.5 -76t66.5 -182q0 -113 -44 -230.5t-122 -198.5t-164 -81 q-108 0 -194 51q-102 38 -139 102.5t-37 180.5zM186 127v8v-8zM233 246q0 -60 28.5 -92.5t68.5 -32.5q55 0 103.5 43.5t79 109.5t48 138t17.5 133q0 46 -13.5 74t-40.5 28q-53 0 -138 -104t-150 -240q-3 -30 -3 -57z" />
<glyph unicode="7" d="M102 139q0 61 158.5 334t325.5 531q-45 -2 -172 -11.5t-172 -9.5q-36 0 -77 71q-41 68 -37 111q3 26 26 21q13 -11 89.5 -13.5t160 1.5t172.5 9t108 5q26 0 70.5 -84.5t38.5 -116.5q1 -14 -125 -223.5t-256.5 -446t-137.5 -311.5q-10 -11 -29 -10.5t-44 14.5t-47 33.5 t-37 45.5t-15 50z" />
<glyph unicode="8" horiz-adv-x="819" d="M51 254q0 97 72 184t194 172q-74 49 -116 98t-45 115q-3 68 37 137t98.5 116.5t120.5 77.5t104 30q43 0 102.5 -24t69.5 -46q66 -15 120.5 -61.5t57.5 -122.5q4 -95 -65.5 -180t-194.5 -175q78 -47 123.5 -99.5t48.5 -123.5q2 -55 -25.5 -118t-74.5 -118t-119 -91.5 t-151 -36.5q-54 0 -114 16.5t-115.5 47.5t-91.5 84t-36 118zM225 211q0 -47 21 -73.5t63 -26.5q54 0 116.5 43t104 103.5t41.5 109.5q-5 68 -79 129q-64 -44 -103 -73t-81.5 -67.5t-62.5 -74t-20 -70.5zM356 791q2 -53 70 -107q4 3 12 8q54 36 80.5 54.5t66.5 49t58.5 51.5 t33 47t13.5 50q0 40 -35.5 65.5t-74.5 37.5q-104 -48 -165.5 -120.5t-58.5 -135.5z" />
<glyph unicode="9" horiz-adv-x="770" d="M98 680q0 114 42 231t118 198t162 81q137 0 194 -68q100 -24 138.5 -87t38.5 -179q0 -139 -45 -297t-111 -282t-145.5 -206.5t-145.5 -82.5q-43 0 -103 21t-97.5 55t-12.5 65q53 -31 104.5 -17t97 52.5t87.5 104.5t75 140t60 158q-91 -147 -195 -147q-18 0 -26 2 q-103 0 -169.5 76t-66.5 182zM289 633q0 -103 53 -103q51 0 133.5 103t145.5 239q4 40 4 60q0 60 -28.5 92.5t-68.5 32.5q-55 0 -102 -43.5t-76 -109.5t-45 -137.5t-16 -133.5zM670 1042l2 9q0 -2 -1 -5t-1 -4z" />
<glyph unicode=":" horiz-adv-x="514" d="M139 122q3 42 30.5 78t68.5 36q25 0 55 -10.5t55.5 -36.5t26.5 -60q0 -59 -27.5 -106.5t-79.5 -47.5q-18 0 -40 5.5t-47 23t-34 43.5q-11 33 -8 75zM216.5 683q2.5 42 30 78t68.5 36q25 0 55 -10.5t56 -36.5t27 -60q0 -59 -27.5 -106t-79.5 -47q-32 0 -70 16.5t-51 54.5 q-11 33 -8.5 75z" />
<glyph unicode=";" horiz-adv-x="514" d="M45 -141q31 0 78.5 166.5t40.5 203.5q0 26 56 4q62 -26 97 -67q16 -18 17 -33q4 -78 -78 -181q-69 -86 -136 -113q-57 -23 -75 20zM216.5 683q2.5 42 30 78t68.5 36q25 0 55 -10.5t56 -36.5t27 -60q0 -59 -27.5 -106t-79.5 -47q-32 0 -70 16.5t-51 54.5q-11 33 -8.5 75z " />
<glyph unicode="&#x3c;" horiz-adv-x="978" d="M112 602q6 10 21 10q11 0 80.5 29t161.5 72.5t180.5 88.5t144 82.5t43.5 49.5q30 19 72 -45.5t45 -124.5q0 -29 -149 -103.5t-301 -128.5q350 -155 350 -192q0 -29 -25 -87t-41 -58q-18 29 -229 147.5t-250 124.5q-38 6 -77 60q-39 52 -26 75z" />
<glyph unicode="=" horiz-adv-x="954" d="M108.5 389.5q-1.5 37.5 20.5 46.5q2 -15 50.5 -17t124 6t153.5 18.5t154.5 19t111.5 8.5q11 0 22.5 -17.5t19 -43t12 -51t3.5 -43.5t-8 -19q-62 9 -167 2.5t-251 -19t-170 -12.5q-26 0 -50 42t-25.5 79.5zM153.5 675.5q-1.5 36.5 18.5 45.5q3 -15 52 -16.5t124.5 7 t153.5 19.5t154 20t110 9q12 0 24 -18t20 -44t12.5 -52t3 -44.5t-8.5 -19.5q-20 9 -110.5 6t-180.5 -10t-182.5 -14t-116.5 -7q-26 0 -49 41t-24.5 77.5z" />
<glyph unicode="&#x3e;" horiz-adv-x="925" d="M109 350q-1 18 74 62t178 90t196 80q-348 149 -348 192q0 29 24.5 87.5t40.5 58.5q18 -29 229.5 -148t250.5 -125q38 -6 77 -60q39 -52 25 -75q-6 -10 -22 -10q-10 0 -79.5 -29t-161.5 -72.5t-180.5 -88.5t-144 -82.5t-43.5 -49.5q-30 -19 -71.5 45.5t-44.5 124.5z" />
<glyph unicode="?" horiz-adv-x="841" d="M162 1071q-3 40 59 87.5t144 78.5t137 31q164 0 260 -140q100 -78 100 -182q0 -43 -24 -85t-62 -77.5t-84.5 -70.5t-93 -70.5t-84.5 -71t-62 -78t-24 -85.5q0 -7 2.5 -14t5.5 -10l2 -3q0 -20 -39 -19q-58 0 -100 41q-39 37 -39 93q0 53 32.5 109t80.5 102t104 93.5 t104 86t79 78.5t30 71q-4 83 -106 78q-92 -5 -197 -69q-90 -54 -101 -101q-5 -22 13 -37q-18 -32 -68 27q-48 57 -65 116q-3 12 -4 21zM186.5 152.5q3.5 43.5 32 79.5t70.5 36q46 0 96 -28t51 -82q0 -59 -29 -109.5t-81 -50.5q-32 0 -72.5 17.5t-58.5 56.5q-12 37 -8.5 80.5 z" />
<glyph unicode="@" horiz-adv-x="1282" d="M21 206q-1 126 26 249t79.5 241.5t119.5 208t151.5 144.5t169.5 55q102 0 288.5 -68.5t221.5 -103.5q57 -47 90.5 -132t40.5 -179.5t-7.5 -194t-47.5 -178.5t-85 -129.5t-114 -50.5q-58 0 -133.5 38.5t-87.5 73.5q-9 40 -12 84q-70 -196 -146 -196q-34 0 -110 25.5 t-96 68.5q-17 37 -17.5 104t22 150t53.5 156t77.5 123t93.5 50q38 0 100 -21.5t116.5 -66t53.5 -94.5q69 -30 72 -63l-25 -62q-73 -203 -40 -252q8 -12 24 -12q37 0 68 46.5t49 115.5t27 142.5t6 131.5q-6 155 -108.5 251.5t-260.5 96.5q-148 0 -278 -174 q-119 -160 -170 -386q-53 -234 2 -391q64 -166 227 -169q66 0 129 19t104 45t67 50t30 38q34 -4 25 -61q-10 -71 -66 -135q-62 -70 -138 -70q-58 0 -129 10t-160 35t-162.5 79.5t-103.5 131.5q-35 100 -36 226zM522 253q-10 -91 21 -91q30 0 84 103t93 207l38 103l10 7 q-10 28 -24.5 36.5t-38.5 8.5q-55 0 -113 -130q-57 -124 -70 -244z" />
<glyph unicode="A" horiz-adv-x="956" d="M46 382q0 88 16 186t39 193.5t62 182.5t84.5 153.5t107.5 106t130 39.5q64 0 143 -27t144 -81.5t72 -118.5q-3 -21 -21 -82q85 -29 111 -66q-25 -36 -63.5 -188t-64.5 -334q-17 -124 -17 -208q0 -39 4 -70q29 10 60.5 34.5t48.5 43.5l16 20q19 1 15 -43q-7 -67 -51 -115 q-39 -43 -94 -43q-44 0 -100 60q-72 27 -78 75q-5 33 -5 83q0 95 18 247q-36 -105 -70 -182.5t-76.5 -144.5t-92 -101.5t-105.5 -34.5q-85 0 -146.5 63t-79.5 193q-7 71 -7 159zM242 455q-11 -98 -11 -171q0 -100 21 -155q15 -39 41 -39q22 0 52.5 31t65 90.5t67 120t70 147 t61.5 141t54.5 132.5t36 92.5t17.5 46.5q2 15 2 29q0 65 -40 127q-49 75 -120 75q-111 0 -201 -205q-85 -193 -116 -462z" />
<glyph unicode="B" horiz-adv-x="872" d="M41 233q0 91 39.5 351.5t89.5 453.5q-30 25 -57 61.5t-27 55.5q0 23 40.5 44.5t106.5 33.5q29 63 56 63q23 0 110 -47h4q220 0 354 -95t134 -226q0 -85 -57.5 -163.5t-144 -132.5t-191.5 -89q133 -23 219 -81.5t86 -158.5q0 -58 -32.5 -113t-84.5 -95.5t-114.5 -71.5 t-124 -46.5t-111.5 -15.5q-120 0 -162 76q-54 19 -93.5 75t-39.5 121zM217 125q8 -2 33 -2q79 0 171 41.5t152 99t60 101.5q0 43 -54 67.5t-133 24.5q-57 0 -120 -13q-47 13 -70 43q-37 -233 -39 -362zM276 610q103 36 209 98.5t186.5 144.5t80.5 151q-3 29 -22.5 49 t-53.5 30t-69 13.5t-81 3.5q-63 0 -135 -10q-58 -195 -115 -480z" />
<glyph unicode="C" horiz-adv-x="753" d="M20 422q0 188 66 382t176 322.5t225 128.5q68 0 140 -34q28 0 52 -4.5t54 -18t48 -46t18 -79.5q0 -75 -33.5 -155t-79.5 -129.5t-84 -49.5q-20 0 -35 14t-20 31q29 17 52.5 90t23.5 148q0 38 -13 123q-66 -1 -138 -70.5t-128.5 -174t-93.5 -237.5t-37 -253 q0 -61 10 -113.5t32.5 -100t64.5 -75t100 -27.5q68 0 133.5 31.5t114.5 80t90.5 109.5t67.5 116.5t40 103.5q23 0 34 -5t12 -9t1 -13q0 -46 -24 -114.5t-69.5 -142.5t-103.5 -138.5t-134.5 -106t-153.5 -41.5q-122 0 -217 65.5t-143 168.5t-48 223z" />
<glyph unicode="D" horiz-adv-x="911" d="M41 233q0 92 41.5 359.5t91.5 462.5q-31 24 -56.5 60t-25.5 54q0 26 45.5 47t102.5 29q25 51 49 51q18 0 133 -59q90 -17 163.5 -56t121 -91t82 -109t52 -116.5t25.5 -107t8 -87.5q0 -169 -74.5 -333.5t-199.5 -270t-260 -105.5q-98 0 -152 72q-59 14 -103 72t-44 128z M217 94q101 12 187 68.5t142.5 134.5t96 171t57 177t17.5 154q0 131 -85 212t-235 81h-6q-62 -210 -117.5 -499t-56.5 -499z" />
<glyph unicode="E" horiz-adv-x="802" d="M20 248q0 110 68.5 199t179.5 143q-66 44 -107 106t-42 135q0 93 65 193t160.5 164.5t179.5 64.5q66 0 142 -45q24 4 43 4q139 0 139 -129q0 -64 -30 -140.5t-74.5 -129.5t-84.5 -53q-22 0 -46.5 15t-30.5 30q33 22 58.5 84t25.5 137q0 43 -11 100q-85 -11 -164 -63.5 t-128.5 -130t-49.5 -156.5q0 -18 3 -39.5t9.5 -46t20.5 -41t33 -16.5h10q72 14 125 14h6q26 0 47 -41t21 -82q0 -23 -8 -28q-92 -2 -175.5 -36t-138.5 -98t-55 -143q0 -64 46 -107.5t120 -43.5q78 0 160 32t156.5 90t134 148t87.5 197q21 0 34 -3.5t17 -12t5 -11t0 -12.5 q-33 -136 -107 -253t-171 -191t-209 -100q-40 -9 -79 -9q-73 0 -145 30q-113 10 -176.5 91.5t-63.5 183.5z" />
<glyph unicode="F" horiz-adv-x="790" d="M40 512q2 32 9 43q14 -7 51 -7q12 0 27 1q47 288 90 479q-38 2 -60 28t-26.5 58.5t-2 60t8.5 35.5q14 -7 77 -7q21 0 48 1q26 74 41 74q32 0 80 -19t76 -42q59 4 138 11t129 11t67 4q27 0 45 -36q19 -35 20 -81v-7q0 -42 -12 -81q-6 10 -44 14q-22 2 -56 2q-24 0 -56 -2 q-74 -2 -125 -5t-143 -9q-50 -199 -96 -477q50 4 117 10.5t109 10.5t58 4q37 0 53 -61q7 -27 7 -53q0 -32 -11 -62q-2 2 -10 3.5t-22.5 2.5t-30.5 1t-40 -0.5t-44.5 -1t-50.5 -1.5t-51.5 -2t-54.5 -2t-52 -2q-29 -204 -30 -325q0 -52 6 -89q-13 -6 -32 -6q-35 0 -85 22 q-78 34 -84 74q-1 9 -1 23q0 78 29 296q-36 7 -52 42q-15 32 -15 62q1 2 1 5z" />
<glyph unicode="G" horiz-adv-x="880" d="M25 375q0 217 68.5 426t181.5 341t235 132q114 0 188 -45h25q19 0 39.5 -4.5t50.5 -18t49 -48t19 -85.5q0 -110 -63 -209.5t-122 -99.5q-22 0 -47 15t-31 30q33 22 58.5 84t25.5 137q0 49 -10 111q-29 9 -57 9q-36 0 -71 -14q-63 -27 -114.5 -88t-95.5 -147.5 t-73.5 -184.5t-46.5 -199t-17 -189q0 -240 117 -240q37 0 75.5 25.5t69 62.5t61 89t50.5 95t39 91l24 114q49 0 113 -15t74 -34q-40 -85 -75 -384q-29 -250 -29 -351q0 -21 1 -35q-5 -8 -41 -8q-147 0 -149 92v13q0 124 35 354q-120 -238 -238 -238q-55 0 -109 24.5 t-102 72.5t-78 131t-30 188z" />
<glyph unicode="H" horiz-adv-x="1001" d="M27 586q5 -19 108 -19q30 0 68 2q40 263 84 459.5t73 196.5q40 0 102 -27t79 -53q-22 -31 -63.5 -198.5t-76.5 -366.5l224 14q45 0 73 -55q39 268 93.5 497.5t85.5 229.5q40 0 99.5 -27t76.5 -53q-26 -36 -79 -258t-94 -483q-35 -223 -35 -340q0 -20 1 -37q29 11 60 35.5 t47 43.5l16 19q19 1 15 -43q-6 -67 -50 -115q-39 -43 -94 -43q-45 0 -101 60q-71 26 -77 75q-4 25 -4 63q0 96 24 271q-13 1 -33 1q-81 0 -274 -13q-30 -201 -30 -309q0 -77 15 -107q-13 -1 -26 -1q-58 0 -109 22q-63 27 -69 69q-1 11 -1 27q0 80 25 285q-12 -1 -28 -2 t-26 -2t-15 -1q-39 0 -71 65q-20 41 -20 78q0 21 7 40z" />
<glyph unicode="I" horiz-adv-x="806" d="M26 69q-4 20 -4 37q0 19 5 35q3 -14 82 -14q89 0 276 18q-51 26 -61 64q-4 16 -4 52q0 83 24 275q36 272 88 488q-140 -18 -164 -18t-50 36t-35 76q-4 19 -4 36q0 18 5 34q4 -13 84 -13q73 0 211 11q33 90 58 90q23 0 81 -20.5t82 -49.5q112 11 140 11q42 0 60 -64 q11 -38 10 -59q0 -15 -5 -23q-10 4 -39 4q-64 0 -219 -20q-58 -199 -109 -493q-45 -258 -44 -376v-30q151 14 190 14q22 0 39.5 -22t24.5 -49t10.5 -52t-2.5 -31q-9 4 -38 4q-76 0 -294 -29q-298 -40 -313 -40q-24 0 -50 38t-35 80z" />
<glyph unicode="J" horiz-adv-x="790" d="M31 147q0 44 34.5 94t73.5 56q3 -39 52.5 -102.5t113.5 -94.5q68 10 112 91t83 245q80 336 94 615q-54 -7 -141 -19.5t-135 -19t-62 -6.5q-45 0 -76 70q-21 45 -21 78q0 19 7 34q4 -13 83 -13q106 0 343 23q-6 30 -12 45q10 14 34 14q13 0 30 -3q49 -12 99 -42 q10 1 22.5 2t21 2t12.5 1q27 0 45.5 -14.5t26 -35t10.5 -41.5q2 -15 2 -26q0 -6 -1 -12q-1 -15 -3 -17q-14 5 -39 5q-19 0 -45 -3q-57 -496 -121 -739q-35 -130 -85.5 -203.5t-139.5 -101.5q-4 -30 -57 -53t-113 -23q-61 0 -112 24.5t-78.5 58.5t-42.5 64t-15 47z" />
<glyph unicode="K" horiz-adv-x="866" d="M43 96q-1 11 -1 28q0 88 31 320q37 276 90.5 528.5t84.5 252.5q40 0 101.5 -27t78.5 -53q-21 -30 -62 -198t-77 -369q70 47 183 180q112 132 202 278q84 137 84 206v9q5 1 10 1q34 0 89 -42q63 -48 63 -108q0 -59 -161.5 -245.5t-334.5 -324.5q23 -51 55 -108.5 t72.5 -119t84.5 -101t79 -39.5q27 3 45 28t22 48l4 24q1 24 16 23q20 -1 34 -32q10 -21 10 -46q0 -24 -11 -46t-21 -32l-11 -10q-44 -69 -82.5 -97t-83.5 -28q-50 0 -107 45t-107.5 116t-89.5 138.5t-67 130.5l-2 -2q-31 -206 -31 -314q0 -75 15 -104q-13 -1 -26 -1 q-58 0 -110 22q-64 27 -69 69z" />
<glyph unicode="L" horiz-adv-x="733" d="M-14 62q-5 16 -5 31q0 16 5 30q2 -8 32 -8q42 0 140 16q-32 12 -52.5 31.5t-23.5 42.5q-1 10 -1 23q-1 84 37 312q44 264 103.5 504t91.5 240q40 0 102 -27t79 -53q-27 -39 -84.5 -249.5t-101.5 -455.5q-35 -192 -35 -295q0 -28 3 -50q324 67 367 67q22 0 39.5 -30 t24.5 -66.5t11 -69.5q1 -12 1 -21q0 -15 -4 -18q-13 6 -57 6q-42 0 -112 -6q-144 -10 -298 -26.5t-178 -16.5q-25 0 -49.5 27.5t-34.5 61.5z" />
<glyph unicode="M" horiz-adv-x="1167" d="M12 133q-1 14 -1 35q0 85 23 282q29 245 74 467t76 222q46 0 105.5 -16t75.5 -40q-25 -34 -73.5 -235t-80.5 -408q76 247 157.5 445t136.5 290.5t79 92.5q62 0 132.5 -34t88.5 -77q-30 -76 -99 -338.5t-92 -445.5q105 309 196.5 488t154.5 179q51 0 119 -50.5t73 -90.5 q-47 -91 -105 -381q-49 -241 -48 -392q0 -31 2 -58q29 10 59 34.5t45 43.5l16 20q19 1 15 -43q-6 -67 -49 -115q-39 -43 -93 -43q-47 0 -98 62q-68 21 -74 73q-3 22 -3 50q0 24 2 54q4 62 6 104t11.5 102.5t14.5 98t17 92t19 85t19 76t17.5 65t14.5 52.5t11 39 q-61 -67 -163 -303.5t-160 -469.5q3 -21 -48 -9q-71 16 -118 59q-33 29 -33 59q0 64 19 186t39 218t55.5 258.5t44.5 205.5q-25 -33 -71 -124t-106 -232.5t-120 -346t-96 -413.5q-7 -1 -15 -1q-56 0 -109 41q-60 46 -63 87z" />
<glyph unicode="N" horiz-adv-x="931" d="M23 143q-1 13 -1 32q0 85 26 287q32 247 79 471t78 224q41 0 103 -26t79 -52q-32 -42 -93 -316t-87 -497q66 196 147 381t153.5 313.5t134.5 206.5t95 78q71 0 151 -57.5t85 -100.5q-94 -197 -166 -543q-48 -229 -47 -380q0 -78 12 -135q21 3 44 14.5t41 26.5t32.5 29.5 t22.5 24.5l8 9q19 1 15 -43q-6 -67 -50 -115q-39 -43 -94 -43q-49 0 -99 60q-72 38 -96 125q-16 56 -16 136q0 69 12 153q26 184 69.5 354.5t86.5 275.5q8 19 10 32.5t-1 19.5t-9 6q-36 0 -145.5 -203.5t-222.5 -460t-169 -422.5q-77 0 -130.5 45.5t-57.5 89.5z" />
<glyph unicode="O" horiz-adv-x="929" d="M27 442q0 148 38 305.5t95 263.5t112 119q33 62 87.5 100t115.5 38q89 0 184 -56q53 -12 96 -35t58 -40q46 -42 71 -129.5t25 -202.5q0 -90 -12.5 -182t-37.5 -185t-66.5 -174t-94.5 -144t-127.5 -99.5t-160.5 -36.5q-181 0 -282 126t-101 332zM213 383q0 -128 41 -208.5 t129 -80.5q74 0 139 66t107.5 170t67 227.5t24.5 241.5q0 158 -46 257t-138 99q-79 0 -136 -65q40 -25 43 -52q-43 0 -98 -102.5t-94 -259t-39 -293.5z" />
<glyph unicode="P" horiz-adv-x="823" d="M43 84q-1 11 -1 27q0 95 40 373q47 324 100 560q-32 25 -56 59t-24 56q0 14 35.5 35t95.5 37q16 47 31 47q38 0 105 -29h22q89 0 165 -22.5t130 -60t92.5 -87.5t57 -104.5t18.5 -110.5q0 -70 -36 -142t-91.5 -128.5t-119 -102t-122.5 -70t-98 -24.5q-53 0 -115 62 q-38 -245 -37 -365q0 -72 13 -100q-17 -7 -39 -7q-17 1 -36 5q-44 10 -85 37.5t-45 54.5zM287 543q99 26 197.5 92t164.5 158.5t66 179.5q0 37 -22.5 63.5t-59.5 39.5t-72.5 18.5t-71.5 5.5q-25 0 -83 -6q-68 -247 -119 -551z" />
<glyph unicode="Q" horiz-adv-x="929" d="M27 442q0 148 38 305.5t95 263.5t112 119q33 62 87.5 100t115.5 38q89 0 184 -56q53 -12 96 -35t58 -40q46 -42 71 -129.5t25 -202.5q0 -103 -16.5 -210t-49 -209.5t-88 -190.5t-126.5 -140q95 -134 145 -166q-22 -30 -73 -67t-85 -37q-10 1 -24.5 17t-36.5 51t-36.5 60 t-43.5 77q-30 -6 -65 -6q-181 0 -282 126t-101 332zM213 383q0 -128 41 -208.5t129 -80.5q21 0 31 2q-69 116 -101 129q8 15 50 45.5t79 30.5q35 0 54 -37q16 -32 47 -80q81 97 129.5 270.5t48.5 344.5q0 158 -46 257t-138 99q-79 0 -136 -65q40 -25 43 -52 q-43 0 -98 -102.5t-94 -259t-39 -293.5z" />
<glyph unicode="R" horiz-adv-x="868" d="M43 84q-1 11 -1 27q0 95 40 373q47 324 100 560q-32 25 -56 59t-24 56q0 14 36.5 32.5t92.5 33.5q19 53 33 53q37 0 109 -31q7 0 21.5 1t21.5 1q89 0 165 -22.5t130 -60t92.5 -87.5t57 -104.5t18.5 -110.5q0 -60 -28 -116.5t-71 -98.5t-98.5 -76.5t-108 -56t-100.5 -31.5 q115 -321 209 -321q27 3 45 28t23 48l4 24q1 24 17 23q19 -1 33 -34q9 -20 9 -44t-10.5 -46t-21.5 -32l-11 -10q-44 -69 -82.5 -97t-83.5 -28q-50 0 -104 49.5t-97.5 124.5t-77 152.5t-51.5 144.5q-40 -250 -40 -373q0 -72 14 -100q-17 -7 -39 -7q-17 1 -36 5 q-44 10 -85 37.5t-45 54.5zM291 569q103 24 204.5 83.5t172.5 146.5t71 174q0 37 -22.5 63.5t-59 39.5t-72 18.5t-71.5 5.5q-64 0 -108 -10q-60 -206 -115 -521z" />
<glyph unicode="S" horiz-adv-x="876" d="M39 176q0 60 78 112t131 52q11 0 21 -5t10 -13q-16 -9 -39 -24.5t-62 -51.5t-39 -60q0 -34 66 -34q106 0 210.5 30.5t173 83.5t68.5 111q0 35 -30.5 60.5t-79.5 42.5t-108 32.5t-117.5 36t-107.5 47.5t-79.5 73.5t-30.5 108.5q0 78 49 168.5t120 162.5t155.5 120.5 t151.5 48.5q79 0 141 -51q29 -5 59 -16.5t60 -30t48.5 -48.5t18.5 -65q0 -57 -30 -132.5t-77 -131t-89 -55.5q-21 0 -36 13.5t-20 31.5q29 17 52.5 89t23.5 142q0 57 -20 139q-94 -22 -191.5 -98.5t-156 -159.5t-58.5 -135q0 -38 27 -61.5t71 -35t96.5 -21.5t105 -29.5 t96.5 -51t71 -92.5t27 -147q0 -60 -24.5 -113t-65.5 -91t-93 -69t-108.5 -49.5t-109.5 -28.5t-99 -10q-30 0 -55 2.5t-43 8t-32 10.5t-23.5 14.5t-16 15t-11 17t-6 15.5t-4 15.5t-2.5 12.5q-67 43 -67 94z" />
<glyph unicode="T" horiz-adv-x="638" d="M23 1174q2 28 8 36q17 -8 100 -8q92 0 264 10q23 66 37 66q30 0 73 -16t73 -37q58 3 130 8t114 7.5t55 2.5q27 0 45 -36q19 -35 20 -81v-7q0 -42 -12 -81q-11 16 -160 16q-86 0 -217 -5q-61 -244 -113 -584q-37 -245 -37 -381q0 -53 5 -90q-13 -6 -32 -6q-34 0 -84 22 q-78 34 -85 74q-1 11 -1 26q0 94 40 369q48 321 102 559q-177 -10 -231 -10q-40 0 -63.5 25.5t-27.5 58.5q-3 23 -4 44q0 9 1 18z" />
<glyph unicode="U" horiz-adv-x="878" d="M25 195q-4 32 -4 76q0 107 24 281q34 246 84.5 447t79.5 201q35 0 93 -25t75 -55q-18 -35 -48.5 -148.5t-59 -256t-49.5 -278.5q-20 -127 -20 -216v-12q2 -92 31 -92q26 0 60.5 41.5t70.5 115t72 157.5t73 186t65 181.5t56.5 164t39.5 114.5q49 189 75 189q40 0 100 -27 t77 -53q-26 -36 -79 -258t-94 -483q-35 -223 -35 -340q0 -20 1 -37q29 11 60 35.5t47 43.5l16 19q19 1 15 -43q-6 -67 -50 -115q-39 -43 -94 -43q-45 0 -101 60q-72 27 -78 75q-3 20 -3 54q0 102 30 327q-160 -475 -285 -475q-94 0 -165 55.5t-80 133.5z" />
<glyph unicode="V" horiz-adv-x="743" d="M64 490q-1 31 -1 62q0 206 24 377q27 197 63 197q76 0 124.5 -16t61.5 -41q-34 -22 -62 -261q-25 -215 -26 -424q0 -23 1 -45q3 -230 42 -230q30 0 72 79t82 198t75 261q34 141 54 267q18 114 17 200v18q-2 92 -32 109q11 15 42 15q12 0 28 -2q54 -8 113 -49.5t59 -82.5 q0 -99 -45.5 -287.5t-112.5 -376.5t-155.5 -328t-163.5 -140q-86 0 -132 29t-83 124q-41 105 -45 347z" />
<glyph unicode="W" horiz-adv-x="1155" d="M42 500v34q0 214 24 396q26 196 61 196q57 0 109.5 -19t76.5 -38q-35 -21 -63 -251q-27 -214 -27 -422v-28q2 -220 41 -221q64 0 215 666q9 101 27 163t39 62q76 0 127.5 -16.5t64.5 -40.5q-35 -21 -61 -247q-22 -192 -22 -378v-64q4 -216 44 -216q30 0 72.5 81t83 204.5 t75.5 269.5t55 275q19 118 19 206v17q-2 94 -32 112q11 15 42 15q11 0 27 -2q54 -8 113 -49.5t59 -82.5q0 -79 -28 -219.5t-76.5 -299.5t-107 -301.5t-127.5 -236.5t-130 -94q-45 0 -76 5t-63 20t-54.5 47t-37.5 82q-28 88 -37 211q-90 -307 -188 -307q-81 0 -132 33.5 t-77 107.5q-34 96 -36 330z" />
<glyph unicode="X" horiz-adv-x="888" d="M23 120q0 42 82 150q83 110 235 283q-53 177 -91 355t-40 225v1q0 27 58 66q62 43 104 43h8q23 -2 27 -24q-3 -5 -3 -22q0 -40 17 -145q25 -151 69 -327q87 101 148 175.5t121 155t90 140t29 94.5q7 9 18 9q9 -1 23 -7q30 -14 62 -45t34 -51q0 -13 -13.5 -38.5t-43 -66 t-59 -78.5t-81.5 -100t-88 -105t-100 -118.5t-99 -116.5q52 -180 109 -300t111 -136q17 26 23.5 64t11 62.5t18.5 27.5q17 0 29 -36t12 -91q0 -51 -32 -93t-71 -48h-24q-36 -25 -68 -25q-123 0 -262 403q-149 -183 -215 -289q-41 -65 -41 -97q0 -19 16 -25q2 -11 -8 -11h-2 q-25 2 -65 44q-49 51 -49 97z" />
<glyph unicode="Y" horiz-adv-x="835" d="M25 195q-4 32 -4 75q0 106 25 278q34 241 84 436.5t79 195.5q35 0 93 -25t75 -55q-18 -35 -48.5 -146.5t-59 -251t-49.5 -272.5q-20 -124 -20 -211v-12q2 -90 31 -90q27 0 61.5 42t71 116.5t72.5 159t73.5 187t65.5 183t56 163.5t39 113q48 183 75 183q25 0 83 -19 t79 -49q-26 -54 -89.5 -347t-111.5 -627q-35 -240 -35 -368q0 -50 5 -83q-7 -15 -38 -17q-7 -1 -14 -1q-25 0 -50 7q-34 8 -61 29.5t-28 48.5v31q0 188 62 588q-154 -451 -277 -451q-94 0 -165 55.5t-80 133.5z" />
<glyph unicode="Z" horiz-adv-x="892" d="M10 -53q0 50 80 132t185 145t171 63q36 0 54 -10t18 -23q0 -7 -10 -10q-4 4 -14 4q-30 0 -93 -40.5t-125.5 -96t-109.5 -118.5t-47 -102q0 -41 55 -41q122 0 265 128q121 109 182 238q35 74 35 125q0 41 -23 67q-29 34 -96 34h-19q-58 -26 -84 -30q-30 0 -71.5 40 t-43.5 66q117 51 219.5 155.5t157 208.5t54.5 177q0 67 -68 67q-91 0 -247.5 -74.5t-215.5 -144.5q23 -32 63.5 -39.5t68.5 -7.5t28 -14q0 -23 -45 -45.5t-94 -22.5q-56 0 -86.5 33t-30.5 74q0 10 4 30q-45 77 -45 121q4 39 96.5 94.5t216 96.5t209.5 41q56 0 117 -33.5 t98 -79.5q105 -72 111 -180q0 -99 -85 -227.5t-204 -225.5q74 -36 128 -103.5t54 -139.5q0 -74 -51.5 -173t-129.5 -186.5t-180 -148t-194 -60.5q-106 0 -174 90q-48 39 -66 72.5t-18 73.5z" />
<glyph unicode="[" horiz-adv-x="507" d="M53 57q-7 67 44.5 370.5t118.5 588t99 293.5q72 20 217 20q24 0 46.5 -40.5t25.5 -75.5t-8 -42q-15 6 -66.5 3.5t-95.5 -11.5q-54 -179 -126 -536t-91 -568q101 9 127 9q13 0 30.5 -42.5t23 -79t-6.5 -42.5q-150 -15 -168 -15h-2q-58 -5 -109 57t-59 111z" />
<glyph unicode="\" horiz-adv-x="628" d="M82 1130q8 30 63.5 62.5t100.5 42.5q31 9 110.5 -233.5t145 -512.5t65.5 -342q0 -32 -11 -68.5t-41 -72t-73 -43.5q15 71 -60 348t-169.5 533.5t-130.5 285.5z" />
<glyph unicode="]" horiz-adv-x="641" d="M41 -3q-3 35 8 42q15 -6 66.5 -3.5t95.5 11.5q54 179 126 536t91 568q-90 -8 -127 -8q-13 0 -30.5 42.5t-23 79t6.5 42.5q140 14 168 14h2q58 5 109 -57t59 -111q7 -67 -44.5 -370.5t-118.5 -587.5t-99 -293q-75 -21 -217 -21q-24 0 -46.5 40.5t-25.5 75.5z" />
<glyph unicode="^" horiz-adv-x="749" d="M127 844q9 4 86 112.5t150 215.5l73 106q6 16 72.5 33.5t93.5 7.5q1 -6 11 -59q84 -463 120 -462q1 0 2 1q8 -22 -44.5 -51t-100.5 -33.5t-58 28.5q-1 15 -11 67.5t-28 142t-28 139.5q-212 -302 -217 -342q-25 4 -67.5 39.5t-53.5 54.5z" />
<glyph unicode="_" horiz-adv-x="892" d="M-14.5 -158q-3.5 44 20.5 54q0 -34 153.5 -38t385 8.5t260.5 12.5q32 0 56.5 -50t25 -93t-12.5 -51q-28 30 -195.5 33.5t-381.5 -8t-215 -11.5q-32 0 -62.5 49.5t-34 93.5z" />
<glyph unicode="`" horiz-adv-x="421" d="M186 1147q-1 16 30 33t70.5 25.5t63.5 4.5q-1 -41 45.5 -161t65.5 -123q1 -3 -10.5 -9.5t-30.5 -12t-35 -5.5t-64.5 49t-91.5 110t-43 89z" />
<glyph unicode="a" d="M20 231q-3 29 -3 63q0 38 4 80q8 80 32.5 163t60.5 152t89.5 113t115.5 44q45 0 117 -32t122 -84q34 -35 34 -66q0 -15 -8 -29l-6 -8q70 -32 90 -88q-45 -131 -61 -243q-5 -35 -5 -59q0 -56 25 -65q38 0 88.5 86.5t82.5 173.5l31 86h7q13 0 31 -9t18 -17q1 -6 -12 -50.5 t-38.5 -109.5t-58.5 -127t-79.5 -106t-94.5 -44q-81 0 -131.5 52t-58.5 131q-2 4 -2 14q-35 -112 -80.5 -176t-112.5 -64q-62 0 -123.5 57t-73.5 162zM210 270q-1 -23 -1 -42q0 -90 31 -91q69 0 219 477q-18 113 -66 113q-64 0 -121 -156q-53 -147 -62 -301z" />
<glyph unicode="b" horiz-adv-x="702" d="M25 289v19q0 88 29 294q33 232 83.5 439.5t87.5 207.5q27 0 88 -16.5t90 -44.5q-23 -29 -84 -254.5t-102 -435.5q24 70 46 123.5t49.5 102.5t58.5 75t63 26t76.5 -23t87 -75t49.5 -117q2 -20 2 -45q-1 -47 -9 -113q-14 -98 -46 -192q143 53 221 268q3 4 16 -1.5t25 -17 t12 -20.5q-36 -143 -122.5 -225t-196.5 -102q-99 -178 -256 -178q-62 0 -113.5 28t-83.5 73t-50.5 97.5t-20.5 106.5zM188 219q0 -23 28 -72t60 -49q39 0 80 74q-93 29 -149 104l-19 -45v-12zM250 383q63 -85 145 -119q31 92 51 196q19 100 19 170v8q-1 74 -27 73 q-17 0 -39 -27t-49 -79.5t-48.5 -101.5t-51.5 -120z" />
<glyph unicode="c" horiz-adv-x="552" d="M16 326q0 111 38.5 227t102.5 193t130 77q35 0 88 -24q29 22 57 22q38 0 75 -45t40 -98q0 -114 -55.5 -193t-116.5 -79q-43 0 -58 32q24 2 56.5 71.5t32.5 135.5q0 24 -11 66q-29 -7 -61.5 -49t-59.5 -100.5t-45 -131.5t-18 -137q0 -75 26.5 -125.5t88.5 -50.5 q44 0 89.5 28.5t82 72.5t70 99.5t56.5 106t38 96.5q21 0 37.5 -11.5t19.5 -23.5q-3 -10 -8 -27.5t-24.5 -68t-42.5 -96t-62 -101.5t-82 -96.5t-103 -68t-125 -27.5q-87 0 -146.5 48t-84.5 119t-25 159z" />
<glyph unicode="d" horiz-adv-x="733" d="M20 231q-3 29 -3 62q0 37 4 79q8 78 32.5 158.5t60.5 147.5t89.5 109t115.5 42q67 0 166 -59q36 205 73 345t63 140q40 0 98 -20t76 -45q-41 -70 -122 -452q-75 -356 -75 -501v-20q0 -18 10 -31.5t23 -13.5q40 0 92.5 86.5t85.5 173.5l33 86q16 0 35 -8q20 -8 20 -19 q0 -7 -12 -49q-13 -44 -38.5 -109.5t-58 -127.5t-79 -106t-93.5 -44q-80 0 -135.5 49.5t-64.5 124.5v31q-35 -116 -82 -182t-117 -66q-62 0 -123.5 57t-73.5 162zM210 267q-1 -22 -1 -41q0 -88 31 -89q67 0 215 451q0 3 1 8.5t1 7.5q-18 107 -64 107q-64 0 -121 -151 q-53 -143 -62 -293z" />
<glyph unicode="e" horiz-adv-x="573" d="M16 326q0 111 38.5 227t102.5 193t130 77q27 0 57 -12q13 19 34.5 31t37.5 12q62 -16 91.5 -67t29.5 -123q0 -71 -26.5 -146.5t-71.5 -130.5t-104 -78q-24 -9 -49 -9q-36 0 -75 19v-26q0 -70 35.5 -123t99.5 -53q54 0 110 42.5t100 108t76 130.5t52 124q21 0 36 -12 t19 -25q-3 -10 -8 -27.5t-24.5 -68t-42.5 -96t-61.5 -101.5t-81.5 -96.5t-103 -68t-125 -27.5q-87 0 -151.5 47.5t-95 120t-30.5 158.5zM217 379q11 -2 21 -2q32 1 60 19q37 24 58 68q22 42 34 90q9 36 8 70v20q-4 42 -21 58q-48 -28 -95.5 -122.5t-64.5 -200.5z" />
<glyph unicode="f" horiz-adv-x="409" d="M20 -176q-2 49 -2 101q0 94 8 200q14 165 47 330t67 301t65 221.5t43 85.5q55 0 115.5 -22.5t70.5 -41.5q-35 -45 -85 -222.5t-97 -409.5q55 -35 92 -101q110 54 178 269q3 4 16 -2.5t24 -18.5t11 -21q0 -211 -196 -309q29 -88 29 -192v-22q-4 -117 -27.5 -217.5 t-67.5 -168t-92 -67.5q-91 0 -141 85.5t-58 221.5zM168 -213q-2 -28 -2 -52q0 -38 4 -65q7 -43 25 -43q16 0 45 90.5t46 222.5q9 67 9 124q0 53 -8 96q-10 -2 -31 -2q-29 0 -41 2q-19 -109 -31 -204t-16 -169z" />
<glyph unicode="g" horiz-adv-x="718" d="M-154 -242q-2 15 -2 29q0 26 6 47q10 32 29.5 51.5t52 32t67 17.5t79.5 7q37 2 70 2h16q14 -1 29 -1q29 0 62 1q50 1 87 5q33 106 61 256q-68 -193 -176 -193q-62 0 -123 57t-73 162q-3 29 -3 63q0 38 4 80q8 81 32.5 163.5t60.5 151.5t89.5 113t115.5 44q45 0 117 -32.5 t121 -83.5q34 -35 34 -66q0 -15 -8 -29q-6 -9 -14 -12q63 -39 73 -72v-6q0 -44 -23 -185q-26 -153 -71 -307q79 82 157.5 224t112.5 253q20 1 38 -11q16 -11 16 -19q0 -65 -78 -228q-59 -124 -139 -225.5t-152 -134.5q-154 -414 -367 -414q-104 0 -199.5 82.5t-101.5 177.5z M6 -240q2 -54 38 -101.5t83 -47.5q100 0 188 248q-36 -3 -78.5 -4t-70 -1.5t-56.5 -2t-46.5 -6.5t-32 -15t-20.5 -27q-5 -15 -5 -36v-7zM220 270q-1 -23 -1 -42q0 -90 31 -91q22 0 53.5 52t63.5 135t56 152t44 136q-18 115 -64 115q-64 0 -121 -156q-53 -147 -62 -301z" />
<glyph unicode="h" horiz-adv-x="753" d="M29 246q-1 11 -1 26q0 84 32 297q38 252 92 479.5t86 227.5q40 0 101.5 -27t78.5 -53q-33 -47 -97.5 -310.5t-91.5 -469.5q36 98 93.5 196.5t107 156.5t72.5 58q50 0 136.5 -61.5t88.5 -91.5q-22 -37 -60 -168q-39 -130 -55 -246q-4 -31 -4 -55q0 -64 33 -72 q38 0 93.5 97.5t91.5 194.5l36 97q8 2 22 -2t24 -12q10 -7 10 -13q0 -19 -24 -93q-22 -72 -58 -160.5t-92 -157t-113 -68.5q-82 0 -140 52.5t-67 130.5q-3 26 -3 55q0 147 68 379q10 35 -5 34q-13 -1 -35 -32q-200 -292 -216 -561q-65 0 -131 62t-73 110z" />
<glyph unicode="i" horiz-adv-x="331" d="M29 215q-2 18 -2 43q0 54 8 140q11 124 40 238t66 114q24 0 79.5 -18t84.5 -38q-22 -39 -59 -208.5t-37 -260.5q0 -69 29 -69q36 0 86.5 90.5t83.5 181.5l32 90h6q13 0 31.5 -9t18.5 -17q1 -6 -12 -52.5t-38.5 -113.5t-58.5 -131.5t-79.5 -110t-94.5 -45.5q-57 0 -117 45 t-67 131zM141 1057q0 50 11 96.5t40 82.5t70 36q49 0 104.5 -35.5t55.5 -87.5q0 -43 -26.5 -103t-68 -105.5t-79.5 -45.5q-39 0 -73 43t-34 119z" />
<glyph unicode="j" horiz-adv-x="446" d="M-428 -242q-2 16 -2 31q0 29 8 51q11 35 39.5 54.5t62.5 30t83.5 14t92 4t100.5 1t97 3.5q51 184 84 409q-26 10 -45 26t-22 28q10 28 58.5 172.5t57.5 175.5h7q53 0 111 -26q63 -29 67 -64v-9q0 -30 -9 -108q-10 -93 -39.5 -245.5t-68.5 -285.5q84 67 175.5 225 t129.5 285q20 1 37 -11q16 -11 16 -19q0 -68 -85 -244q-64 -131 -151 -233.5t-161 -120.5q-146 -404 -340 -404q-68 0 -138 38t-116 99t-49 123zM-264 -240q0 -53 35.5 -101t81.5 -48q97 0 174 246q-33 -2 -73.5 -3t-65.5 -1t-53.5 -2t-44.5 -7.5t-30 -15.5t-20 -26 q-4 -14 -4 -35v-7zM186 1087q0 50 11 96.5t40 83t70 36.5q50 0 110 -35.5t60 -87.5q0 -71 -55 -165.5t-111 -94.5q-41 0 -83 46t-42 121z" />
<glyph unicode="k" horiz-adv-x="716" d="M33 225q-1 11 -1 26q0 84 32 297q38 252 92 479.5t86 227.5q40 0 101.5 -26.5t78.5 -52.5q-34 -48 -103 -337t-92 -489q32 156 106 305.5t130 171.5q7 32 36.5 56t51.5 24q64 -17 102.5 -69.5t38.5 -120.5q0 -95 -51.5 -190.5t-132.5 -147.5q5 -70 37 -144.5t71 -74.5 q24 0 54.5 37t56.5 89.5t49 105t36 89.5l13 37q17 2 37 -7q19 -9 19 -18t-13 -57q-12 -44 -38.5 -114.5t-60.5 -134t-86 -110t-108 -46.5q-111 0 -177 82t-87 231q-4 2 -8 2q-48 -151 -65 -293q-65 0 -131.5 62t-73.5 110zM328 422q22 5 43 5q16 0 32 -3q35 24 65 71 q28 47 44 95q15 46 16 88q0 45 -20 65q-28 -8 -79.5 -99t-100.5 -222z" />
<glyph unicode="l" horiz-adv-x="460" d="M52 448q6 132 36 280.5t68 272.5t89.5 205.5t100.5 81.5q42 0 90 -31q19 27 39 27q70 0 70 -178q-1 -84 -46 -235.5t-122.5 -306.5t-155.5 -224v-15q0 -202 82 -202q38 0 79.5 41t73.5 99.5t59 117.5t41 100l15 41h7q17 0 32 -9t15 -16q1 -10 -11 -57q-12 -50 -42 -123.5 t-70 -142.5t-103.5 -118.5t-134.5 -49.5q-78 0 -131 55.5t-72 155.5q-10 71 -10 159q-1 35 1 72zM229 457q83 140 151 391q57 210 56 297q0 17 -2 29q-24 0 -66.5 -113.5t-82.5 -285t-56 -318.5z" />
<glyph unicode="m" horiz-adv-x="1110" d="M29 248q-2 24 -2 52q-1 106 29 282q38 222 67 223q41 0 93.5 -14.5t90.5 -49.5q-42 -101 -82 -303q58 155 137.5 291.5t110.5 136.5q34 0 86.5 -30.5t90.5 -67.5t38 -55q-16 -27 -39 -113.5t-41 -189.5q57 149 136 277t110 128q50 0 136.5 -62t86.5 -91q-22 -39 -58 -156 q-36 -118 -52 -224q-4 -27 -4 -48q0 -60 34 -66q27 0 60 36t60.5 87.5t51 103t37.5 87.5l13 36q13 3 35 -8q21 -11 20 -20q0 -17 -23 -86q-22 -66 -58 -147t-91.5 -143.5t-112.5 -62.5q-82 0 -141 52t-68 130q-2 22 -2.5 45t1.5 46.5t4.5 45t7.5 46.5t8.5 43.5t10.5 44.5 t11 40.5t11 40t10 36.5q10 35 -6 34q-14 -1 -37 -32q-67 -99 -131.5 -257.5t-75.5 -332.5q-83 0 -136.5 36t-60.5 97q-1 10 -1 21q0 71 22 223q24 176 47 262q8 35 -8 34q-14 -1 -35 -32q-64 -89 -128.5 -256t-76.5 -344q-69 0 -123.5 53t-62.5 121z" />
<glyph unicode="n" horiz-adv-x="722" d="M29 227q-2 23 -2 50q-1 107 31 283q40 222 69 222q110 0 178 -63q-41 -99 -82 -275q58 143 138 264t112 121q42 0 97 -30.5t91.5 -67t36.5 -55.5q-21 -38 -58.5 -165t-53.5 -241q-4 -31 -5 -54q0 -63 33 -69q24 0 55 38t58.5 92.5t51.5 109.5t38 93l14 38q8 2 22 -2 q15 -3 25 -10q10 -6 9 -13q1 -17 -23 -89q-22 -70 -58.5 -155.5t-91 -151.5t-108.5 -66q-83 0 -141.5 52t-67.5 130q-2 24 -2.5 50.5t2.5 55.5q5 59 21 131t24.5 105.5t26.5 99.5q10 35 -6 34q-14 -1 -37 -32q-30 -44 -59 -95.5t-65 -129t-61.5 -171.5t-31.5 -187 q-70 0 -121 43.5t-59 109.5z" />
<glyph unicode="o" horiz-adv-x="641" d="M16 324q0 92 25.5 186.5t63.5 154.5t73 60h4q12 39 42.5 63.5t64.5 24.5q57 0 127.5 -36t103.5 -64q76 -67 76 -240q0 -61 -14 -143q122 38 170 200q1 4 14 -0.5t26 -14.5t13 -19q-20 -107 -90.5 -179t-161.5 -88q-39 -107 -107.5 -172t-160.5 -65q-67 0 -120.5 30 t-85 79.5t-47.5 106.5t-16 116zM199 223q0 -129 63 -129q64 0 121 148q-100 34 -168 123q-16 -78 -16 -142zM258 504q59 -121 156 -164q30 123 30 219q0 70 -16.5 112t-50.5 42q-30 0 -68 -33q43 -21 43 -41q0 -6 -4 -10q-49 -21 -90 -125z" />
<glyph unicode="p" horiz-adv-x="743" d="M-27 -297q-1 18 -1 40q0 122 34 359q39 280 88.5 507t67.5 227q45 0 109.5 -21t74.5 -41q-23 -32 -76 -268q-2 -3 2 -10q108 325 226 325q67 0 122 -55t68 -160q3 -30 3 -63q0 -48 -7 -103q-11 -93 -41 -178q139 58 213 266q3 4 16 -1.5t25 -17t12 -20.5 q-32 -140 -117 -222.5t-194 -104.5q-88 -162 -223 -162q-104 0 -176 82q-41 -256 -41 -383q0 -48 6 -78q-6 -9 -27 -9h-10q-30 3 -63 10.5t-61 29.5t-30 51zM227 229h2q9 -54 32.5 -84t53.5 -30q36 0 76 59q-90 28 -143 102zM289 383q60 -80 145 -117q33 85 54 190 q18 93 18 161v17q-3 73 -29 73q-53 0 -188 -324z" />
<glyph unicode="q" horiz-adv-x="710" d="M20 231q-3 29 -3 63q0 38 4 80q8 81 32.5 163.5t60.5 151.5t89.5 113t115.5 44q41 0 104.5 -26.5t116 -71.5t52.5 -89q0 -24 -31 -69q41 -14 72.5 -36.5t34.5 -43.5q-62 -168 -115 -457q78 81 157 223.5t113 253.5q20 1 38 -11q16 -11 16 -19q0 -103 -134 -332 q-105 -178 -211 -242q-6 -84 -6 -144q0 -90 13 -130q-7 -11 -39 -12h-4q-30 0 -64 8q-36 7 -65.5 25t-30.5 40v9q0 39 12 157q-23 27 -27 47t6.5 33.5t34.5 26.5l35 229q-68 -203 -180 -203q-62 0 -123.5 57t-73.5 162zM210 270q-1 -23 -1 -42q0 -90 31 -91q69 0 219 477 q-18 113 -66 113q-64 0 -121 -156q-53 -147 -62 -301z" />
<glyph unicode="r" horiz-adv-x="583" d="M55 774q0 59 31.5 121.5t75.5 62.5q37 0 75 -20.5t60 -52.5q-19 -13 -72 -160q47 0 156 41q30 0 100 -45.5t74 -69.5q-30 -54 -78.5 -197.5t-48.5 -228.5q0 -34 13.5 -51.5t29.5 -17.5q24 0 55.5 37.5t59.5 91t52.5 107t39.5 90.5l14 38h6q13 0 31.5 -9.5t18.5 -18.5 q1 -8 -23.5 -77t-62.5 -154t-97.5 -153.5t-118.5 -68.5q-71 0 -131 44t-67 132q-1 10 -1 22q-1 67 23 192q28 148 68 224q-63 -11 -106 -11q-10 0 -19 1l-66 -213q-12 -10 -32 3.5t-21 43.5q22 64 56 176q-95 30 -95 121z" />
<glyph unicode="s" horiz-adv-x="565" d="M-31 247q3 71 52 86q10 3 22 3q27 0 71.5 -16.5t110 -47t92.5 -41.5q4 35 2 58q-4 49 -48 166.5t-48 197.5l-76 -223q-12 -11 -33.5 2.5t-21.5 42.5q52 140 78 221q30 91 57 130t80 42h8q55 0 117 -40q51 -33 51 -58q0 -5 -2 -10h-4q-33 0 -67 -34q-36 -36 -37 -81 q0 -27 30.5 -86.5t65 -133.5t41.5 -132q3 -31 0 -62q107 107 166 297q3 4 16.5 -1t25.5 -15q11 -10 11 -19q-1 -98 -103 -251q-74 -110 -165 -150q-74 -99 -232 -104q-129 0 -206 102q-54 73 -54 151v6zM100 190v-6q0 -16 4 -34q6 -22 24 -39t44 -17q27 0 63.5 16t59.5 54 q-142 53 -177 53q-7 0 -9 -2q-8 -5 -9 -25z" />
<glyph unicode="t" horiz-adv-x="430" d="M2 770q2 20 8 27q13 -7 50 -7q23 0 55 3q70 303 104 303q43 0 98.5 -18.5t77.5 -47.5q-24 -45 -69 -211q70 8 84 9q38 0 52 -46q6 -19 6 -41q0 -28 -11 -59q-6 6 -47.5 6t-120.5 -6q-26 -104 -43 -194q-18 -91 -26 -175q-4 -35 -3 -64q0 -41 7 -69q12 -49 46 -49 q60 0 136.5 116t132.5 275q12 3 33.5 -7.5t21.5 -20.5q-1 -14 -17 -64t-47.5 -121t-70 -136.5t-92.5 -112t-107 -46.5q-96 0 -153.5 57t-67.5 140q-3 24 -3 56q0 135 52 401h-2q-35 0 -56.5 18t-25.5 41q-3 15 -3 29q0 7 1 14z" />
<glyph unicode="u" horiz-adv-x="704" d="M25 250q-3 20 -3 47q0 63 15 163q21 144 56.5 264t62.5 120q39 0 94 -24.5t74 -53.5q-24 -45 -76 -251q-44 -175 -45 -254q0 -14 2 -25q3 -33 22 -33q24 0 56 50t64 131t55 147t44 133q27 127 68 127q35 0 89.5 -14t74.5 -42q-21 -37 -58.5 -227.5t-37.5 -282.5 q0 -69 28 -69q36 0 87 90.5t83 181.5l33 90h6q13 0 31 -9t18 -17q1 -6 -11.5 -52.5t-38 -113.5t-58.5 -131.5t-79.5 -110t-94.5 -45.5q-57 0 -117.5 45t-67.5 131q-2 16 -2 76q-79 -215 -192 -215q-78 0 -124.5 48t-57.5 126z" />
<glyph unicode="v" horiz-adv-x="632" d="M33 352q3 96 13 190.5t33.5 165t53.5 70.5q24 0 78 -21.5t86 -49.5q-9 -8 -26.5 -68t-32 -141.5t-22.5 -161.5q-4 -39 -5 -71q0 -35 5 -63q9 -55 38 -55q22 0 45.5 29t43.5 76t33.5 86t24.5 78q-29 44 -33 122q-1 14 -1 26q-1 64 13 122q16 70 47 122t62 52q44 0 79 -43 t38 -84v-12q0 -129 -59 -307q25 -21 57 -21q51 0 90.5 44t59.5 110q12 5 30 -16q16 -18 15 -36v-6q-13 -76 -69.5 -132t-145.5 -56q-44 0 -76 14q-57 -127 -131 -205.5t-156 -78.5q-63 0 -116 46t-64 128q-9 40 -9 108q0 19 1 39z" />
<glyph unicode="w" horiz-adv-x="976" d="M35 372q5 99 18.5 195t40 167t56.5 71q34 0 90 -31t71 -53q-12 -7 -31.5 -67t-35.5 -141.5t-26 -161.5q-6 -46 -5 -83q1 -28 3 -52q8 -56 34 -56q20 0 40.5 38.5t37.5 99.5t29 117t23 111q2 12 3 17q22 174 72 174q26 0 82 -24.5t81 -53.5q-9 -8 -23.5 -64t-26.5 -131.5 t-18 -149.5q-2 -27 -2 -50q0 -42 6 -74q10 -51 40 -51q67 0 151 295q-29 42 -32 113v21q0 59 14 114q17 64 46.5 111.5t60.5 47.5q44 0 78.5 -42.5t37.5 -84.5q0 -7 1 -13q0 -120 -52 -273q26 -15 49 -15q51 0 90.5 44t59.5 110q12 5 30 -16q16 -18 15 -36v-6 q-13 -76 -69.5 -132t-145.5 -56q-33 0 -66 10q-59 -137 -136.5 -223t-164.5 -86q-63 0 -115 45t-63 125q-58 -129 -162 -129q-69 0 -117 45t-61 129q-9 40 -9 103q0 24 1 52z" />
<glyph unicode="x" horiz-adv-x="628" d="M66 32q0 25 149 228q-66 118 -106 250q-31 104 -31 142q0 11 2 16q22 30 86 47q42 11 73 11q17 0 31 -3q0 -96 72 -291q184 256 238 395q13 0 41.5 -27.5t29.5 -47.5v-1q0 -74 -260 -436q37 -82 72 -133t59 -51t55 40t58 96.5t50.5 113.5t37.5 97l14 40h6q13 0 30 -8.5 t20 -17.5v-1q1 -9 -11 -54q-12 -49 -38 -119.5t-58.5 -139t-78.5 -116.5t-93 -48q-121 0 -235 148q-122 -173 -158 -236q-23 6 -37 43q-18 45 -18 63z" />
<glyph unicode="y" horiz-adv-x="708" d="M-150 -180q-2 15 -2 29q0 137 163 162q35 5 89 5q84 0 212 -13q28 -3 32 -3q38 127 70 303q-81 -227 -199 -227q-78 0 -125.5 48t-58.5 126q-3 20 -3 49q0 62 14 163q20 146 54.5 268t61.5 122q37 0 93.5 -30.5t76.5 -61.5q-25 -45 -74 -248q-42 -172 -42 -250 q0 -15 1 -26q3 -33 23 -33q13 0 30 17.5t33.5 48t34 68t35 83t32.5 87t29 84.5t23 72t17 53l7 25v2h6q60 -2 113.5 -21.5t62.5 -47.5v-6q0 -56 -33 -246q-34 -200 -94 -385q81 76 166 226t121 267q20 1 37 -11q16 -11 16 -19q0 -66 -84 -240q-62 -129 -147.5 -232 t-159.5 -124q-143 -344 -329 -344q-100 0 -198 83t-104 177zM48 -292q36 -48 83 -48q100 0 184 250q-67 5 -114 5t-95.5 -8t-72.5 -33q-23 -23 -23 -61q0 -54 38 -105z" />
<glyph unicode="z" horiz-adv-x="659" d="M-190 -342q3 88 123.5 189.5t361.5 205.5q-13 38 -57 43q-12 -4 -21 -4q-32 0 -73.5 37.5t-41.5 93.5q133 61 248 221q91 126 110 221q4 18 4 31q0 39 -32 39q-40 0 -109.5 -61.5t-123 -134.5t-56.5 -107q-33 2 -67 54q-26 39 -26 89q0 17 3 35q3 19 34 57t76.5 77.5 t107.5 68.5t118 29q45 0 99.5 -32t95.5 -86t42 -108q0 -102 -85.5 -238.5t-194.5 -221.5q56 -3 94 -41q114 60 204 172.5t128 242.5q20 1 38 -11q16 -11 15 -19q-1 -112 -125 -280q-98 -132 -219 -191q4 -28 4 -47q0 -74 -36 -162t-94 -163t-139.5 -125t-164.5 -50 q-36 0 -75 9.5t-77.5 28.5t-63 55t-25.5 83zM-55 -382q2 -32 39 -32q49 0 116 54.5t122.5 141t72.5 169.5q-169 -70 -278 -195q-72 -82 -72 -133v-5z" />
<glyph unicode="{" horiz-adv-x="571" d="M27 616q0 29 41 29h34q41 0 72.5 26t49.5 64.5t32.5 98.5t21.5 111t17 120t18 109q31 169 109 169q135 0 211 -56q43 -31 33 -54q-5 -10 -23 -14q-19 22 -49 22q-48 0 -72 -104q-11 -43 -25.5 -126t-27 -148.5t-32.5 -132.5t-53 -104.5t-77 -37.5h-65q113 -45 118 -125 q2 -28 -47 -261t-49 -296q-2 -62 36.5 -82t117.5 8q2 -24 -24.5 -53t-53.5 -29q-37 1 -79.5 14t-83 36.5t-68.5 63.5t-31 89q-3 87 45.5 294.5t46.5 248.5q-2 61 -109 90q-32 9 -34 30z" />
<glyph unicode="|" horiz-adv-x="360" d="M43 -127q-15 151 44.5 534.5t137.5 703t111 319.5q40 0 101.5 -27t78.5 -53q-30 -43 -105 -314t-147 -642.5t-78 -610.5q-43 0 -90.5 25.5t-52.5 64.5z" />
<glyph unicode="}" horiz-adv-x="1640" d="M85 -139q6 11 24 14q13 -22 45 -22q53 0 84 143q8 38 18.5 104.5t18.5 115.5t22.5 107t31 95t44.5 62.5t63 25.5h68q-114 42 -119 125q-2 27 48 260t50 295q0 59 -34.5 78t-122.5 16q-1 23 26 43t56 20q79 -2 174 -61t98 -127q4 -68 -23.5 -187.5t-55.5 -226.5t-26 -145 q2 -58 107 -88q33 -8 35 -31q0 -28 -39 -28h-37q-33 0 -59 -15t-45 -46t-32.5 -64.5t-24 -84t-17.5 -89.5t-16 -96.5t-15 -90.5q-15 -102 -41.5 -157.5t-75.5 -55.5q-134 0 -203 56q-40 31 -27 55z" />
<glyph unicode="~" horiz-adv-x="854" d="M104 487q-2 39 7 78t28.5 76.5t58.5 60.5t91 23q35 0 81 -26t82.5 -57t76.5 -57t65 -26q39 0 60.5 26t19.5 62q0 22 -17 43q8 1 13 2.5t10 1.5q29 0 45.5 -28t19.5 -74q2 -41 -4.5 -79t-23.5 -74t-52 -57.5t-83 -21.5q-43 0 -92.5 25t-86 55t-74.5 55t-61 25 q-37 0 -59.5 -25.5t-24.5 -64.5l13 -35q-20 -4 -27 -4q-28 0 -46.5 26.5t-19.5 69.5z" />
<glyph unicode="&#xa1;" horiz-adv-x="401" d="M-47 -260q-5 55 43 248.5t90.5 362t28.5 181.5q-3 12 13 13q37 5 103 -31q82 -45 84 -94q1 -37 -44.5 -227.5t-76.5 -359t-4 -185.5q-14 -22 -67 -12t-112 44t-58 60zM147 754q4 57 32 106t77 49q35 0 75.5 -16t59.5 -55q12 -23 9 -57t-13.5 -65.5t-36.5 -54t-59 -22.5 q-26 0 -57 11.5t-58.5 39t-28.5 64.5z" />
<glyph unicode="&#xa2;" horiz-adv-x="724" d="M113 557q0 108 37.5 221.5t100 189.5t126.5 76q32 0 80 -20q27 141 32 141q24 0 59.5 -11.5t35.5 -25.5l-29 -139q143 -38 143 -141q0 -64 -30 -106t-60 -42q-11 0 -20 2t-12 4l-3 1q11 30 13 71t-10 76.5t-39 40.5q-41 -211 -99 -541q87 13 158 103q1 0 3 1t3 1 q11 0 23 -11.5t12 -29.5q0 -43 -66.5 -99.5t-152.5 -74.5q-16 -102 -27 -191q-13 -13 -42 7.5t-30 50.5q-2 17 11 127q-110 11 -163.5 98t-53.5 221zM303 524q0 -110 47 -149q39 273 84 520q-53 -57 -92 -162t-39 -209z" />
<glyph unicode="&#xa3;" horiz-adv-x="806" d="M74 193q6 -19 166 12q-67 24 -70 69q0 78 12 201h-37q-26 0 -42 18.5t-19.5 42t-2.5 43.5t5 25q15 -7 111 -4q15 92 34.5 171.5t51 157.5t70 128.5t93 73t117.5 2.5q94 -3 165 -58.5t71 -138.5q0 -66 -55 -145.5t-116.5 -107t-105.5 21.5q58 52 93 151q38 109 3 157 q-18 23 -53 23q-32 0 -80.5 -128t-83.5 -296q28 2 67 5.5t61 5.5t30 2q27 0 38.5 -53.5t-3.5 -90.5q-10 8 -219 0q-26 -164 -17 -252q284 62 310 62q25 0 43.5 -20.5t26.5 -50.5t12 -59.5t3.5 -50t-3.5 -20.5q-25 10 -157.5 -0.5t-271.5 -26.5t-155 -16q-48 0 -78 54t-14 92 z" />
<glyph unicode="&#xa4;" horiz-adv-x="886" d="M80 379q4 12 12 20l96 80q-9 23 -12 49q-14 108 39 220q-99 110 -121 116q-10 7 9 34.5t55.5 53t68.5 25.5q12 0 97 -96q45 28 96 28q80 0 182 -63q11 9 31 26l30 25.5t25.5 22t23.5 21t17.5 16.5t14 14.5t6.5 9.5q10 6 33 -24t36 -66t0 -45q-8 -7 -27.5 -21t-51 -36.5 t-54.5 -38.5q24 -59 16.5 -133.5t-43.5 -141.5q122 -142 140 -127q22 -15 -25 -44q-55 -34 -111 -36q-24 -1 -36 8q-20 12 -82 80q-62 -30 -123 -30q-114 0 -184 73q-128 -103 -119 -120q-23 -17 -38 19q-17 42 -1 81zM345 528q9 -73 58 -75q65 0 108 91q39 82 32 162 q-7 70 -49 70q-64 0 -111 -88q-43 -81 -38 -160z" />
<glyph unicode="&#xa5;" horiz-adv-x="856" d="M82 317q0 25 6 37q19 -8 121 -8h51l10 78h-80q-34 0 -48.5 25.5t-14.5 58.5q0 25 6 37q19 -8 127 -8h27q2 6 2 18q-35 102 -78 280.5t-43 217.5q0 24 89 46.5t110 8.5q28 -260 55 -428q51 90 177.5 272.5t143.5 182.5q36 -12 71.5 -45t41.5 -62q-237 -299 -364 -487 q30 1 63.5 2t51 1.5t20.5 0.5q27 0 39 -25t12 -59q0 -23 -8 -51q-14 8 -207 12l-10 -72q28 1 60 2t49 1.5t20 0.5q53 0 53 -80q0 -23 -8 -51q-13 10 -187 13q-13 -146 9 -191q-72 -6 -135.5 21t-69.5 69q-3 26 4 103h-101q-36 0 -50.5 24t-14.5 55z" />
<glyph unicode="&#xa6;" horiz-adv-x="360" d="M43 -127q5 -39 52.5 -64.5t90.5 -25.5q6 279 84 659q-16 20 -68 40.5t-102 21.5q-75 -442 -57 -631zM147 737q55 276 110.5 484.5t78.5 208.5q40 0 101.5 -27t78.5 -53q-21 -28 -76.5 -227.5t-113.5 -448.5q-20 -7 -98 16.5t-81 46.5z" />
<glyph unicode="&#xa7;" horiz-adv-x="792" d="M-31 -16q0 53 70.5 100t118.5 47q10 0 19 -4.5t9 -11.5q-5 -3 -13.5 -8.5t-30.5 -20.5t-39 -29.5t-30.5 -32.5t-13.5 -32q0 -31 60 -31q146 0 258 61t112 142q0 31 -24 48.5t-62 22.5t-84.5 7.5t-93 9.5t-84.5 22t-62 51t-24 91q0 62 44.5 123.5t127.5 107.5 q-118 43 -118 162q0 70 43.5 152t107 147t139 108.5t136.5 43.5q37 0 63 -13q26 -3 57 -12t64.5 -25.5t55.5 -45.5t22 -64q0 -46 -25 -106.5t-64 -106t-73 -45.5q-16 0 -28 11t-15 26q23 12 41 69.5t18 114.5q0 26 -10 59q-67 -4 -134.5 -40t-114.5 -85.5t-77 -102.5 t-30 -91q0 -34 22.5 -51.5t58 -21.5t79 -5.5t86.5 -11.5t78.5 -31.5t58 -72.5t22.5 -128q0 -105 -119 -192q45 -57 45 -166q0 -69 -44.5 -133t-110.5 -105.5t-140 -66.5t-135 -25q-38 0 -66.5 9t-43 18.5t-26 29t-13 25.5t-6.5 23q-62 41 -62 86zM211 444q0 -28 14 -44.5 t41 -22.5t55 -8.5t68.5 -5.5t69.5 -9q47 35 75.5 81.5t28.5 86.5q0 12 -3.5 22t-11.5 18t-15.5 14t-23 11t-25.5 8.5t-31 7t-32 5.5t-35.5 5t-35.5 5q-72 -43 -105.5 -91.5t-33.5 -82.5z" />
<glyph unicode="&#xa8;" horiz-adv-x="561" d="M205 985q-15 50 7 108t73 58q33 0 71.5 -24t38.5 -62q0 -51 -21.5 -91t-60.5 -40q-26 0 -58.5 12t-49.5 39zM457 1025.5q1 34.5 23 64.5t55 30t74 -23.5t44 -64.5q-2 -49 -25.5 -89t-68.5 -40q-24 0 -54.5 14.5t-37.5 45.5q-11 28 -10 62.5z" />
<glyph unicode="&#xa9;" horiz-adv-x="1423" d="M92 559q0 100 24.5 200.5t77 195.5t125.5 168t179 117t229 44q81 0 166 -18t174 -61t158 -106t113 -162.5t44 -221.5q0 -78 -19 -160.5t-56 -165t-97 -155.5t-135.5 -129.5t-178 -89.5t-218.5 -33q-121 0 -226 36.5t-186 106.5t-127.5 181.5t-46.5 252.5zM283 541 q0 -80 16 -146.5t44.5 -112.5t65 -80t80.5 -53.5t87.5 -28.5t89.5 -9q97 0 183 38.5t147.5 103t107 146t68 168.5t22.5 170q0 189 -109.5 311.5t-285.5 122.5q-144 0 -263 -85t-186 -229.5t-67 -315.5zM444 553q0 111 41.5 212.5t112.5 164.5t152 63q50 0 99 -20.5t64 -42.5 q37 -24 46.5 -46t9.5 -57q0 -53 -35 -110.5t-72 -57.5q-13 0 -31.5 6.5t-21.5 14.5q17 31 35 93.5t18 100.5q0 17 -5.5 24t-18.5 7q-29 0 -65 -26.5t-70 -71.5t-57 -114.5t-23 -145.5q0 -166 106 -166q42 0 77.5 24.5t90.5 79.5h4q3 0 9.5 -4t13 -14t6.5 -23q0 -54 -84 -114 t-174 -60q-100 0 -164 69.5t-64 213.5z" />
<glyph unicode="&#xaa;" horiz-adv-x="634" d="M83.5 548.5q1.5 17.5 6.5 24.5q48 -10 118.5 -3t173.5 20.5t128 13.5q38 0 53 -40.5t-4 -94.5q-5 6 -36.5 7t-78.5 -1t-95.5 -5t-99.5 -6t-79 -3q-36 0 -57.5 15t-26 35t-3 37.5zM119 807q-6 60 6 138t39 150.5t75 122.5t105 50q33 0 87 -24t91.5 -63t20.5 -71 q-3 -6 -6 -6q53 -26 67 -66q-12 -35 -22.5 -78.5t-17 -85t-9 -76t2 -56t15.5 -21.5q10 -12 -1 -27.5t-37 -15.5q-43 0 -80 26t-41 66q-2 16 -2 53q-56 -180 -146 -180q-46 0 -91.5 42.5t-55.5 121.5zM261 812q-1 -75 24 -75q49 0 164 357q-15 86 -50 86q-51 0 -96 -133 q-42 -125 -42 -235z" />
<glyph unicode="&#xab;" horiz-adv-x="894" d="M51 569q33 16 191.5 154t158.5 172q0 6 13 6q27 0 60.5 -44t33.5 -87q0 -26 -74.5 -91t-154.5 -112q55 -58 91 -124t36 -115q0 -29 -16 -59t-46 -38q-4 31 -120.5 158t-172.5 180zM389 569q33 16 191.5 154t158.5 172q0 6 13 6q26 0 59 -43.5t33 -87.5q0 -26 -74 -91 t-154 -112q55 -58 91 -124t36 -115q0 -29 -16 -59t-47 -38q-1 17 -40.5 66.5t-97.5 111.5t-92.5 98t-60.5 62z" />
<glyph unicode="&#xac;" horiz-adv-x="954" d="M82 594q0 34 22 37q9 -29 175 -29q85 0 225 9.5t182 9.5q53 0 104.5 -58.5t51.5 -128.5q0 -85 -23.5 -156t-56.5 -71q-43 0 -88.5 23t-50.5 46q21 32 33 78t12 78q0 25 -6 25q-127 0 -296 -8.5t-186 -8.5q-35 0 -66.5 54.5t-31.5 99.5z" />
<glyph unicode="&#xad;" horiz-adv-x="798" d="M83 609q4 20 21 22q7 -25 92 -27t226 7.5t188 9.5q22 0 45 -45t28 -84t-7 -46q-28 9 -99.5 10t-142.5 -3t-149 -8.5t-105 -4.5q-37 0 -72 65q-33 63 -25 104z" />
<glyph unicode="&#xae;" horiz-adv-x="1423" d="M92 559q0 100 24.5 200.5t77 195.5t125.5 168t179 117t229 44q81 0 166 -18t174 -61t158 -106t113 -162.5t44 -221.5q0 -78 -19 -160.5t-56 -165t-97 -155.5t-135.5 -129.5t-178 -89.5t-218.5 -33q-121 0 -226 36.5t-186 106.5t-127.5 181.5t-46.5 252.5zM283 541 q0 -80 16 -146.5t44.5 -112.5t65 -80t80.5 -53.5t87.5 -28.5t89.5 -9q97 0 183 38.5t147.5 103t107 146t68 168.5t22.5 170q0 189 -109.5 311.5t-285.5 122.5q-144 0 -263 -85t-186 -229.5t-67 -315.5zM473 342q-4 38 21.5 192t56.5 283q-14 17 -28.5 58.5t-14.5 56.5 q0 12 27.5 27.5t85 27.5t127.5 12q62 0 112 -25t79.5 -65.5t45.5 -88.5t16 -97q0 -64 -58 -117t-134 -82q33 -72 73.5 -122.5t69.5 -47.5q6 -21 -38 -45t-74 -24q-53 0 -110.5 83.5t-86.5 168.5q-33 -204 -12 -244q-24 -14 -89.5 5.5t-68.5 43.5zM653 594q93 21 171.5 83 t78.5 134q0 63 -125 63q-37 0 -57 -2q-30 -96 -68 -278z" />
<glyph unicode="&#xaf;" horiz-adv-x="528" d="M186 1044q-2 14 3.5 23.5t17.5 9.5q27 -30 160 -30q82 0 141 16q47 -8 77.5 -47.5t32.5 -73.5q4 -15 -6 -22q-63 -11 -131 -11q-50 0 -94 5t-93 17.5t-78 41.5t-30 71z" />
<glyph unicode="&#xb0;" horiz-adv-x="610" d="M113 969q0 73 28.5 137.5t90 109t145.5 44.5q110 0 171.5 -67.5t61.5 -174.5q0 -115 -70 -202t-190 -87q-102 0 -169.5 64t-67.5 176zM274 944q0 -44 16.5 -70t49.5 -26q52 0 83.5 58t31.5 128q0 45 -16 74t-48 29q-47 0 -82 -61.5t-35 -131.5z" />
<glyph unicode="&#xb1;" horiz-adv-x="1034" d="M63.5 110.5q-1.5 36.5 20.5 45.5q3 -15 61.5 -16t147 7.5t179.5 19.5t175.5 20.5t118.5 9.5q12 0 24.5 -18.5t20.5 -45t13 -53t4.5 -45t-7.5 -19.5q-21 9 -127 6t-212.5 -9.5t-212.5 -13.5t-128 -7q-27 0 -51.5 41t-26 77.5zM145.5 634.5q-1.5 36.5 20.5 45.5 q5 -30 276 -4q6 20 15.5 48.5t16 48.5t14.5 45.5t13.5 43.5t11 38.5t8.5 34t5 26t1.5 20t-3.5 10.5q0 24 63 -3q70 -29 102 -68q13 -15 13 -27q0 -44 -49 -193q161 21 215 21q12 0 24.5 -18.5t20.5 -44.5t13.5 -52.5t5 -45t-7.5 -19.5q-46 13 -326 -2q-61 -191 -51 -260 q0 -32 -41 -19q-49 16 -90 68q-35 43 -37 88q-2 31 18 108q-168 -8 -174 -8q-27 0 -51.5 41t-26 77.5z" />
<glyph unicode="&#xb2;" horiz-adv-x="688" d="M135 643q82 51 177 147.5t158 189t60 134.5q-2 59 -75 32q-67 -25 -130 -88t-42 -89l4 -4q-26 -21 -71.5 23.5t-47.5 76.5q10 57 91.5 128t160.5 71q40 0 94 -18.5t74 -47.5q4 -3 17.5 -13.5t19.5 -15.5t17.5 -15t17.5 -18t13 -18t10 -20t3 -21q1 -71 -112.5 -209.5 t-233.5 -224.5q34 5 82.5 14.5t79 15t43.5 5.5q21 0 36 -16.5t20.5 -39.5t7.5 -46t0 -39.5t-5 -16.5q-9 12 -55.5 12.5t-101 -6t-121.5 -13.5t-101 -7q-10 0 -38 32t-46.5 66t-5.5 39z" />
<glyph unicode="&#xb3;" horiz-adv-x="669" d="M135 618q2 11 12 13q26 -30 83.5 -33t114 15.5t98.5 57t40 83.5q-7 57 -55 71q-18 -6 -35 -6q-19 0 -57.5 38t-38.5 50q90 22 168.5 89t75.5 122q-2 42 -83 27q-77 -14 -136 -56q-50 -36 -29 -61q-24 -16 -58 26.5t-34 73.5q-1 43 85 87.5t148 44.5q46 0 97 -22t67 -62 q3 -1 7.5 -3.5t16 -13t20.5 -24.5t17 -38.5t9 -54.5q1 -40 -39.5 -88t-100.5 -86q38 -26 65 -74t30 -102q3 -72 -93 -142.5t-221 -70.5q-79 0 -139 67q-40 44 -35 72z" />
<glyph unicode="&#xb4;" horiz-adv-x="364" d="M123 938q15 -2 62.5 58.5t88 128.5t39.5 85q44 -3 97.5 -34t56.5 -66q-1 -13 -53.5 -66.5t-114.5 -102t-84 -48.5q-17 0 -52.5 19.5t-39.5 25.5z" />
<glyph unicode="&#xb5;" horiz-adv-x="714" d="M-76 -236q-7 71 37 335.5t103.5 504.5t91.5 240h10q68 -4 137 -51q24 -17 33 -29q-19 -25 -41.5 -91.5t-40 -144.5t-29 -152t-10 -123.5t17.5 -49.5q24 0 56 50t64.5 130.5t56 147.5t43.5 133q27 127 67 127q35 0 89.5 -14t74.5 -42q-21 -37 -58.5 -227.5t-37.5 -282.5 q0 -69 28 -69q24 0 54 37.5t55.5 91.5t47.5 108t35 91l13 38q16 0 35.5 -7.5t22.5 -16.5q1 -8 -11 -54.5t-37.5 -115t-59.5 -133t-84.5 -110.5t-104.5 -46q-56 0 -111.5 44.5t-62.5 131.5q-2 16 -2 76q-79 -215 -193 -215q-33 0 -57 6q-63 -337 -27 -408q-72 -6 -135.5 21 t-69.5 69z" />
<glyph unicode="&#xb6;" horiz-adv-x="1089" d="M86 807q0 83 35.5 160.5t107.5 144.5t198 107.5t290 40.5q146 0 232.5 -31.5t86.5 -95.5q0 -43 -15.5 -94t-41.5 -60q-33 -121 -96 -432q38 3 65 12q25 -13 25 -43q0 -37 -35.5 -78t-85.5 -55q-49 -287 -49 -420q0 -53 10 -80q-20 -14 -45 -14q-40 0 -77 34.5t-42 69.5 q0 94 47 410q-44 3 -90 12q-59 -349 -59 -514q0 -57 10 -80q-17 -20 -51 -20q-42 0 -76.5 29.5t-34.5 80.5q0 181 58 541q-77 24 -140.5 57.5t-115.5 79t-81.5 106.5t-29.5 132zM227 866q0 -21 9 -45q14 -54 81 -104.5t166 -89.5q53 300 95 446q-62 -7 -120 -22t-112 -39.5 t-86.5 -62t-32.5 -83.5zM639 575q60 -12 86 -16q55 332 102 504q-11 3 -79 12q-47 -175 -109 -500z" />
<glyph unicode="&#xb7;" horiz-adv-x="399" d="M113 508q-21 45 2.5 107.5t77.5 62.5q39 0 81 -26t43 -70q0 -53 -24.5 -96.5t-71.5 -43.5q-28 0 -62 16t-46 50z" />
<glyph unicode="&#xb8;" horiz-adv-x="284" d="M-20 -231q0 20 10 20q21 -18 59 -18q57 0 109.5 33t52.5 73q0 8 -2.5 15t-8 12t-10.5 8.5t-13.5 6t-12.5 3.5t-13 2.5t-10 1.5q-29 7 -24 39q6 36 44 56q21 10 46 10q71 0 102 -73t2 -158q-33 -94 -119 -124q-34 -12 -73 -12q-74 0 -106.5 34.5t-32.5 70.5z" />
<glyph unicode="&#xb9;" horiz-adv-x="628" d="M168 1018q34 -2 112.5 63.5t112.5 157.5l2 -6q13 29 25 29q17 0 72.5 -17.5t62.5 -32.5q-26 -36 -84.5 -332t-42.5 -333q-47 -5 -100.5 11t-57.5 42q-3 21 15 144.5t43 246.5q-51 -61 -88 -61q-28 0 -49 32t-23 56z" />
<glyph unicode="&#xba;" horiz-adv-x="618" d="M83.5 548.5q1.5 17.5 6.5 24.5q48 -10 118.5 -3t173.5 20.5t128 13.5q38 0 53 -40.5t-4 -94.5q-5 6 -36.5 7t-78.5 -1t-95.5 -5t-99.5 -6t-79 -3q-36 0 -57.5 15t-26 35t-3 37.5zM139 825q-9 57 1 126t31 124t49 92t52 37h2q21 53 60 66q44 13 110 -18t91 -56 q34 -29 46.5 -95.5t0 -143.5t-42 -149t-84.5 -119.5t-121 -47.5q-79 0 -131.5 54t-63.5 130zM275 783q6 -64 44 -64q50 0 98 113q50 119 56 241q1 118 -49 123q-21 0 -53 -25q44 -25 28 -41q-47 -18 -88 -136q-44 -123 -36 -211z" />
<glyph unicode="&#xbb;" horiz-adv-x="905" d="M51 362q0 26 74 91t154 112q-55 58 -91 124.5t-36 115.5q0 29 16 58.5t47 37.5q1 -17 40.5 -66.5t97.5 -111.5t92.5 -98t60.5 -62q-33 -16 -191.5 -153.5t-158.5 -171.5q0 -7 -13 -7q-26 0 -59 43.5t-33 87.5zM387 362q0 26 74.5 91t154.5 112q-55 58 -91 124.5 t-36 115.5q0 29 16 58.5t46 37.5q4 -31 120.5 -158t172.5 -180q-33 -16 -191.5 -153.5t-158.5 -171.5q0 -7 -13 -7q-27 0 -60.5 44t-33.5 87z" />
<glyph unicode="&#xbc;" horiz-adv-x="1411" d="M188 1018q34 -2 113 63.5t113 157.5l2 -6q13 29 24 29q17 0 72.5 -17.5t62.5 -32.5q-26 -36 -84 -332t-42 -333q-47 -5 -100.5 11t-57.5 42q-3 22 14.5 145.5t42.5 245.5q-51 -61 -88 -61q-28 0 -49 32t-23 56zM375 76q0 34 74.5 164t177 291.5t203 320.5t161 271.5 t41.5 123.5q11 26 49 4q41 -24 58 -71q6 -17 6 -33q0 -30 -113.5 -213t-248 -386t-239.5 -378.5t-91 -194.5q-22 -11 -50 18.5t-28 82.5zM741 256q20 20 169 200.5t216 266.5q10 16 15 16q26 0 82.5 -17.5t64.5 -31.5q-15 -22 -45.5 -155t-52.5 -271q58 4 74 4q22 0 31 -69 t-7 -80q-13 16 -117 16q-10 -124 5 -149q-46 -5 -103.5 11.5t-60.5 41.5q-3 19 4 90q-47 -3 -101 -6.5t-85 -5.5t-35 -2q-15 0 -40 66.5t-14 74.5zM883 242q45 2 147 10q6 49 33 207q-26 -32 -65 -79.5t-67.5 -81.5t-47.5 -56z" />
<glyph unicode="&#xbd;" horiz-adv-x="1536" d="M186 1018q34 -2 113 63.5t113 157.5l2 -6q13 29 24 29q17 0 72.5 -17.5t62.5 -32.5q-26 -36 -84.5 -332t-42.5 -333q-47 -5 -100 11t-57 42q-3 22 14.5 145.5t42.5 245.5q-51 -61 -88 -61q-28 0 -49 32t-23 56zM375 76q0 34 74.5 164t177 291.5t203 320.5t161 271.5 t41.5 123.5q11 26 49 4q41 -24 58 -71q6 -17 6 -33q0 -30 -113.5 -213t-248 -386t-239.5 -378.5t-91 -194.5q-22 -11 -50 18.5t-28 82.5zM870 131q82 51 177.5 147.5t158.5 189t60 134.5q-2 59 -75 32q-67 -24 -130 -88q-64 -63 -43 -89l4 -4q-26 -21 -71.5 23.5t-47.5 76.5 q10 57 91.5 128t160.5 71q40 0 94 -18.5t74 -47.5q4 -3 17.5 -13.5t19.5 -15.5t17.5 -15t17.5 -18t13 -18t10 -20t3 -21q1 -71 -112.5 -209.5t-233.5 -224.5q34 5 82.5 14.5t79 15t43.5 5.5q21 0 36 -16.5t20.5 -39.5t7.5 -46t0 -39.5t-5 -16.5q-9 12 -55.5 12.5t-101 -6 t-121 -13.5t-100.5 -7q-10 0 -38.5 32t-47 66t-5.5 39z" />
<glyph unicode="&#xbe;" horiz-adv-x="1411" d="M94 618q2 11 12 13q26 -30 83.5 -33t114 15.5t98.5 57t40 83.5q-7 57 -55 71q-18 -6 -35 -6q-19 0 -57.5 38t-38.5 50q90 22 168.5 89t75.5 122q-2 42 -83 27q-77 -14 -136 -56q-50 -36 -29 -61q-24 -16 -58 26.5t-34 73.5q-1 43 85 87.5t148 44.5q46 0 97 -22t67 -62 q3 -1 7.5 -3.5t16 -13t20.5 -24.5t17 -38.5t9 -54.5q1 -40 -39.5 -88t-100.5 -86q38 -26 65 -74t30 -102q3 -72 -93 -142.5t-221 -70.5q-79 0 -139 67q-40 44 -35 72zM375 76q0 34 74.5 164t177 291.5t203 320.5t161 271.5t41.5 123.5q11 26 49 4q41 -24 58 -71q6 -17 6 -33 q0 -30 -113.5 -213t-248 -386t-239.5 -378.5t-91 -194.5q-22 -11 -50 18.5t-28 82.5zM741 256q20 20 169 200.5t216 266.5q10 16 15 16q26 0 82.5 -17.5t64.5 -31.5q-15 -22 -45.5 -155t-52.5 -271q58 4 74 4q22 0 31 -69t-7 -80q-13 16 -117 16q-10 -124 5 -149 q-46 -5 -103.5 11.5t-60.5 41.5q-3 19 4 90q-47 -3 -101 -6.5t-85 -5.5t-35 -2q-15 0 -40 66.5t-14 74.5zM883 242q45 2 147 10q6 49 33 207q-26 -32 -65 -79.5t-67.5 -81.5t-47.5 -56z" />
<glyph unicode="&#xbf;" horiz-adv-x="702" d="M0 -47q0 43 24 85t62 77.5t84.5 71l93 71t84.5 71t62 78t24 85.5q0 7 -2.5 13.5t-5.5 9.5l-2 3q0 20 39 19q58 0 100 -41q39 -37 39 -93q0 -53 -32.5 -109t-80.5 -102t-104 -93.5t-104 -86t-79 -78.5t-30 -71q4 -83 106 -78q92 5 197 69q90 54 101 101q5 22 -13 37 q18 32 68 -27q48 -57 65 -116q3 -12 4 -21q3 -40 -59 -87.5t-144 -78.5t-137 -31q-164 0 -260 140q-100 78 -100 182zM426 741q0 59 29.5 109.5t81.5 50.5q32 0 72.5 -17.5t58.5 -56.5q12 -37 8.5 -80.5t-32.5 -79.5t-71 -36q-46 0 -96 28t-51 82z" />
<glyph unicode="&#xc0;" horiz-adv-x="980" d="M71 382q0 88 16 186t39 193.5t62 182.5t84.5 153.5t107.5 106t130 39.5q64 0 143 -27t143.5 -81.5t71.5 -118.5q-4 -27 -20 -82q84 -29 110 -66q-25 -36 -63.5 -188t-64 -334.5t-13.5 -277.5q29 10 60.5 34.5t48.5 43.5l16 20q19 1 15 -43q-6 -67 -50 -115 q-39 -43 -94 -43q-44 0 -100 60q-72 27 -78 75q-15 102 12 330q-36 -105 -70 -182.5t-76.5 -144.5t-92 -101.5t-105.5 -34.5q-84 0 -145.5 63t-79.5 193q-7 71 -7 159zM266 455q-27 -232 10 -326q15 -39 41 -39q22 0 52.5 31t65 90.5t67 120t70 147t61.5 141t54.5 132.5 t36 92.5t17.5 46.5q11 81 -37.5 156t-119.5 75q-111 0 -201 -205q-86 -193 -117 -462zM477 1554q-1 16 30 33t70.5 26t63.5 5q-2 -41 45 -161.5t66 -123.5q1 -3 -10.5 -9t-30.5 -11.5t-35 -5.5t-64.5 48.5t-91.5 109.5t-43 89z" />
<glyph unicode="&#xc1;" horiz-adv-x="980" d="M71 382q0 88 16 186t39 193.5t62 182.5t84.5 153.5t107.5 106t130 39.5q64 0 143 -27t143.5 -81.5t71.5 -118.5q-4 -27 -20 -82q84 -29 110 -66q-25 -36 -63.5 -188t-64 -334.5t-13.5 -277.5q29 10 60.5 34.5t48.5 43.5l16 20q19 1 15 -43q-6 -67 -50 -115 q-39 -43 -94 -43q-44 0 -100 60q-72 27 -78 75q-15 102 12 330q-36 -105 -70 -182.5t-76.5 -144.5t-92 -101.5t-105.5 -34.5q-84 0 -145.5 63t-79.5 193q-7 71 -7 159zM266 455q-27 -232 10 -326q15 -39 41 -39q22 0 52.5 31t65 90.5t67 120t70 147t61.5 141t54.5 132.5 t36 92.5t17.5 46.5q11 81 -37.5 156t-119.5 75q-111 0 -201 -205q-86 -193 -117 -462zM532 1366q15 -2 63 58.5t88.5 128.5t39.5 85q44 -3 97.5 -34t56.5 -66q-1 -13 -53.5 -66.5t-114.5 -102t-84 -48.5q-17 0 -53 19.5t-40 25.5z" />
<glyph unicode="&#xc2;" horiz-adv-x="980" d="M71 382q0 88 16 186t39 193.5t62 182.5t84.5 153.5t107.5 106t130 39.5q64 0 143 -27t143.5 -81.5t71.5 -118.5q-4 -27 -20 -82q84 -29 110 -66q-25 -36 -63.5 -188t-64 -334.5t-13.5 -277.5q29 10 60.5 34.5t48.5 43.5l16 20q19 1 15 -43q-6 -67 -50 -115 q-39 -43 -94 -43q-44 0 -100 60q-72 27 -78 75q-15 102 12 330q-36 -105 -70 -182.5t-76.5 -144.5t-92 -101.5t-105.5 -34.5q-84 0 -145.5 63t-79.5 193q-7 71 -7 159zM266 455q-27 -232 10 -326q15 -39 41 -39q22 0 52.5 31t65 90.5t67 120t70 147t61.5 141t54.5 132.5 t36 92.5t17.5 46.5q11 81 -37.5 156t-119.5 75q-111 0 -201 -205q-86 -193 -117 -462zM475 1356q0 17 32.5 75.5t86 114.5t96.5 56q71 0 107 -50q31 -40 57 -113t23 -98q-4 -33 -66 -49t-84 -10q4 27 -15 116t-40 89t-72.5 -75.5t-60.5 -98.5q-17 0 -40.5 17t-23.5 26z" />
<glyph unicode="&#xc3;" horiz-adv-x="980" d="M71 382q0 88 16 186t39 193.5t62 182.5t84.5 153.5t107.5 106t130 39.5q64 0 143 -27t143.5 -81.5t71.5 -118.5q-4 -27 -20 -82q84 -29 110 -66q-25 -36 -63.5 -188t-64 -334.5t-13.5 -277.5q29 10 60.5 34.5t48.5 43.5l16 20q19 1 15 -43q-6 -67 -50 -115 q-39 -43 -94 -43q-44 0 -100 60q-72 27 -78 75q-15 102 12 330q-36 -105 -70 -182.5t-76.5 -144.5t-92 -101.5t-105.5 -34.5q-84 0 -145.5 63t-79.5 193q-7 71 -7 159zM266 455q-27 -232 10 -326q15 -39 41 -39q22 0 52.5 31t65 90.5t67 120t70 147t61.5 141t54.5 132.5 t36 92.5t17.5 46.5q11 81 -37.5 156t-119.5 75q-111 0 -201 -205q-86 -193 -117 -462zM444 1378q-3 60 34 114t102 54q32 0 68.5 -28.5t68 -57t51.5 -28.5q25 0 39 18t12 39q0 18 -10 31q12 6 25 6q45 0 49 -72q5 -59 -27.5 -109.5t-95.5 -50.5q-37 0 -75 28t-69 55.5 t-49 27.5q-24 0 -39.5 -18t-15.5 -41q4 -18 8 -25q-18 -6 -26 -6q-22 0 -35 18.5t-15 44.5z" />
<glyph unicode="&#xc4;" horiz-adv-x="980" d="M71 382q0 88 16 186t39 193.5t62 182.5t84.5 153.5t107.5 106t130 39.5q64 0 143 -27t143.5 -81.5t71.5 -118.5q-4 -27 -20 -82q84 -29 110 -66q-25 -36 -63.5 -188t-64 -334.5t-13.5 -277.5q29 10 60.5 34.5t48.5 43.5l16 20q19 1 15 -43q-6 -67 -50 -115 q-39 -43 -94 -43q-44 0 -100 60q-72 27 -78 75q-15 102 12 330q-36 -105 -70 -182.5t-76.5 -144.5t-92 -101.5t-105.5 -34.5q-84 0 -145.5 63t-79.5 193q-7 71 -7 159zM266 455q-27 -232 10 -326q15 -39 41 -39q22 0 52.5 31t65 90.5t67 120t70 147t61.5 141t54.5 132.5 t36 92.5t17.5 46.5q11 81 -37.5 156t-119.5 75q-111 0 -201 -205q-86 -193 -117 -462zM451 1372q-15 51 6.5 108.5t72.5 57.5q33 0 72 -24t39 -62q0 -51 -21.5 -91t-60.5 -40q-26 0 -58.5 12t-49.5 39zM703 1412.5q1 34.5 22.5 64.5t54.5 30t74.5 -23.5t44.5 -64.5 q-2 -49 -25.5 -89t-68.5 -40q-24 0 -54.5 14.5t-37.5 45.5q-11 28 -10 62.5z" />
<glyph unicode="&#xc5;" horiz-adv-x="980" d="M71 382q0 88 16 186t39 193.5t62 182.5t84.5 153.5t107.5 106t130 39.5q64 0 143 -27t143.5 -81.5t71.5 -118.5q-4 -27 -20 -82q84 -29 110 -66q-25 -36 -63.5 -188t-64 -334.5t-13.5 -277.5q29 10 60.5 34.5t48.5 43.5l16 20q19 1 15 -43q-6 -67 -50 -115 q-39 -43 -94 -43q-44 0 -100 60q-72 27 -78 75q-15 102 12 330q-36 -105 -70 -182.5t-76.5 -144.5t-92 -101.5t-105.5 -34.5q-84 0 -145.5 63t-79.5 193q-7 71 -7 159zM266 455q-27 -232 10 -326q15 -39 41 -39q22 0 52.5 31t65 90.5t67 120t70 147t61.5 141t54.5 132.5 t36 92.5t17.5 46.5q11 81 -37.5 156t-119.5 75q-111 0 -201 -205q-86 -193 -117 -462zM508 1456q0 67 46 124.5t126 57.5q42 0 86 -15t79.5 -53t35.5 -91q0 -28 -8.5 -57.5t-27.5 -60t-56 -50t-87 -19.5q-81 0 -137.5 41.5t-56.5 122.5zM637 1434q0 -25 11.5 -40.5 t31.5 -15.5q32 0 52 35.5t20 77.5q0 55 -39 55q-33 0 -54.5 -33t-21.5 -79z" />
<glyph unicode="&#xc6;" horiz-adv-x="1359" d="M25.5 463q-9.5 35 5.5 43q33 6 215 16q169 273 331 505.5t193 232.5q22 0 59 -27.5t56 -56.5q103 77 196 77q66 0 142 -45q24 4 43 4q139 0 139 -129q0 -64 -29.5 -140.5t-74.5 -129.5t-84 -53q-22 0 -47 15t-31 30q33 22 58.5 84t25.5 137q0 43 -11 100 q-85 -11 -164 -63.5t-128.5 -130t-49.5 -156.5q0 -18 3 -39.5t9.5 -46t20.5 -41t33 -16.5h10q72 14 125 14h6q26 0 47 -41t21 -82q0 -23 -8 -28q-92 -2 -175.5 -36t-138.5 -98t-55 -143q0 -64 46 -107.5t120 -43.5q78 0 160 32t156.5 90t134.5 148t88 197q10 0 18 -1 t13.5 -2.5t10 -3t7 -5t4 -5.5t2 -6t0.5 -5.5v-5.5v-5q-33 -136 -107 -253t-171 -191.5t-209.5 -100t-223.5 21.5q-113 10 -176 91.5t-63 183.5q0 82 36 147q-98 0 -235 -10q-193 -327 -193 -405q-51 -4 -108 62.5t-45 109.5q17 43 114 208l-45 -6q-16 -2 -41.5 36t-35 73z M467 532q165 5 184 5t54 -27q60 54 120 80q-66 44 -107 106t-42 135q0 19 2 27q-84 -122 -211 -326z" />
<glyph unicode="&#xc7;" horiz-adv-x="753" d="M20 422q0 188 66 382t176 322.5t225 128.5q68 0 140 -34q28 0 52 -4.5t54 -18t48 -46t18 -79.5q0 -75 -33.5 -155t-79.5 -129.5t-84 -49.5q-20 0 -35 14t-20 31q29 17 52.5 90t23.5 148q0 38 -13 123q-66 -1 -138 -70.5t-128.5 -174t-93.5 -237.5t-37 -253 q0 -61 10 -113.5t32.5 -100t64.5 -75t100 -27.5q68 0 133.5 31.5t114.5 80t90.5 109.5t67.5 116.5t40 103.5q23 0 34 -5t12 -9t1 -13q0 -56 -36 -141.5t-94 -171t-145 -151.5t-177 -77q26 -37 29 -91.5t-15.5 -105.5t-68 -87.5t-119.5 -36.5q-74 0 -107 34t-33 70 q0 21 11 21q22 -19 59 -19q57 0 109.5 33.5t52.5 73.5q0 8 -2.5 15t-8 12t-10.5 8.5t-13.5 6t-12.5 3.5t-13 2.5t-10 1.5q-24 6 -25 31t21 47q-132 42 -208.5 163.5t-76.5 272.5z" />
<glyph unicode="&#xc8;" horiz-adv-x="802" d="M20 248q0 110 68.5 199t179.5 143q-66 44 -107 106t-42 135q0 93 65 193t160.5 164.5t179.5 64.5q66 0 142 -45q24 4 43 4q139 0 139 -129q0 -64 -30 -140.5t-74.5 -129.5t-84.5 -53q-22 0 -46.5 15t-30.5 30q33 22 58.5 84t25.5 137q0 43 -11 100q-85 -11 -164 -63.5 t-128.5 -130t-49.5 -156.5q0 -18 3 -39.5t9.5 -46t20.5 -41t33 -16.5h10q72 14 125 14h6q26 0 47 -41t21 -82q0 -23 -8 -28q-92 -2 -175.5 -36t-138.5 -98t-55 -143q0 -64 46 -107.5t120 -43.5q78 0 160 32t156.5 90t134 148t87.5 197q21 0 34 -3.5t17 -12t4.5 -11 t0.5 -12.5q-33 -136 -107 -253t-171 -191.5t-209.5 -100t-223.5 21.5q-113 10 -176.5 91.5t-63.5 183.5zM436 1554q-1 16 30 33t70.5 26t63.5 5q-2 -41 45 -161.5t66 -123.5q1 -3 -10.5 -9t-30.5 -11.5t-35 -5.5t-64.5 48.5t-91.5 109.5t-43 89z" />
<glyph unicode="&#xc9;" horiz-adv-x="802" d="M20 248q0 110 68.5 199t179.5 143q-66 44 -107 106t-42 135q0 93 65 193t160.5 164.5t179.5 64.5q66 0 142 -45q24 4 43 4q139 0 139 -129q0 -64 -30 -140.5t-74.5 -129.5t-84.5 -53q-22 0 -46.5 15t-30.5 30q33 22 58.5 84t25.5 137q0 43 -11 100q-85 -11 -164 -63.5 t-128.5 -130t-49.5 -156.5q0 -18 3 -39.5t9.5 -46t20.5 -41t33 -16.5h10q72 14 125 14h6q26 0 47 -41t21 -82q0 -23 -8 -28q-92 -2 -175.5 -36t-138.5 -98t-55 -143q0 -64 46 -107.5t120 -43.5q78 0 160 32t156.5 90t134 148t87.5 197q21 0 34 -3.5t17 -12t4.5 -11 t0.5 -12.5q-33 -136 -107 -253t-171 -191.5t-209.5 -100t-223.5 21.5q-113 10 -176.5 91.5t-63.5 183.5zM453 1366q15 -2 62.5 58.5t88 128.5t39.5 85q44 -3 97.5 -34t56.5 -66q-1 -13 -53.5 -66.5t-114.5 -102t-84 -48.5q-17 0 -52.5 19.5t-39.5 25.5z" />
<glyph unicode="&#xca;" horiz-adv-x="802" d="M20 248q0 110 68.5 199t179.5 143q-66 44 -107 106t-42 135q0 93 65 193t160.5 164.5t179.5 64.5q66 0 142 -45q24 4 43 4q139 0 139 -129q0 -64 -30 -140.5t-74.5 -129.5t-84.5 -53q-22 0 -46.5 15t-30.5 30q33 22 58.5 84t25.5 137q0 43 -11 100q-85 -11 -164 -63.5 t-128.5 -130t-49.5 -156.5q0 -18 3 -39.5t9.5 -46t20.5 -41t33 -16.5h10q72 14 125 14h6q26 0 47 -41t21 -82q0 -23 -8 -28q-92 -2 -175.5 -36t-138.5 -98t-55 -143q0 -64 46 -107.5t120 -43.5q78 0 160 32t156.5 90t134 148t87.5 197q21 0 34 -3.5t17 -12t4.5 -11 t0.5 -12.5q-33 -136 -107 -253t-171 -191.5t-209.5 -100t-223.5 21.5q-113 10 -176.5 91.5t-63.5 183.5zM381 1366q0 17 32.5 75.5t86 114.5t96.5 56q71 0 106 -49q31 -40 57 -113t23 -98q-4 -33 -65.5 -49.5t-83.5 -10.5q4 27 -15 116t-40 89t-73 -75.5t-61 -98.5 q-17 0 -40 17t-23 26z" />
<glyph unicode="&#xcb;" horiz-adv-x="802" d="M20 248q0 110 68.5 199t179.5 143q-66 44 -107 106t-42 135q0 93 65 193t160.5 164.5t179.5 64.5q66 0 142 -45q24 4 43 4q139 0 139 -129q0 -64 -30 -140.5t-74.5 -129.5t-84.5 -53q-22 0 -46.5 15t-30.5 30q33 22 58.5 84t25.5 137q0 43 -11 100q-85 -11 -164 -63.5 t-128.5 -130t-49.5 -156.5q0 -18 3 -39.5t9.5 -46t20.5 -41t33 -16.5h10q72 14 125 14h6q26 0 47 -41t21 -82q0 -23 -8 -28q-92 -2 -175.5 -36t-138.5 -98t-55 -143q0 -64 46 -107.5t120 -43.5q78 0 160 32t156.5 90t134 148t87.5 197q21 0 34 -3.5t17 -12t4.5 -11 t0.5 -12.5q-33 -136 -107 -253t-171 -191.5t-209.5 -100t-223.5 21.5q-113 10 -176.5 91.5t-63.5 183.5zM397 1372q-15 50 7 108t73 58q33 0 72 -24t39 -62q0 -51 -21.5 -91t-60.5 -40q-27 0 -59.5 12t-49.5 39zM649 1412.5q1 34.5 23 64.5t55 30t74.5 -23.5t44.5 -64.5 q-2 -49 -25.5 -89t-68.5 -40q-24 0 -55 14.5t-38 45.5q-11 28 -10 62.5z" />
<glyph unicode="&#xcc;" horiz-adv-x="677" d="M-83 69q-9 42 1 72q9 -28 358 4q-51 26 -61 64q-15 55 21 327t88 488q-140 -18 -164 -18t-50 36t-35 76.5t1 69.5q7 -25 295 -2q33 90 57 90q23 0 81.5 -20.5t82.5 -49.5q112 11 139 11q41 0 60 -64t6 -82q-33 13 -258 -16q-58 -201 -109.5 -494.5t-44.5 -404.5 q150 14 190 14q22 0 39.5 -22t24.5 -49t10.5 -52t-2.5 -31q-34 15 -332.5 -25t-312.5 -40q-24 0 -50 38t-35 80zM375 1554q-1 16 30 33t70.5 26t63.5 5q-2 -41 44.5 -161.5t65.5 -123.5q1 -3 -10.5 -9t-30.5 -11.5t-35 -5.5t-64.5 48.5t-91 109.5t-42.5 89z" />
<glyph unicode="&#xcd;" horiz-adv-x="677" d="M-83 69q-9 42 1 72q9 -28 358 4q-51 26 -61 64q-15 55 21 327t88 488q-140 -18 -164 -18t-50 36t-35 76.5t1 69.5q7 -25 295 -2q33 90 57 90q23 0 81.5 -20.5t82.5 -49.5q112 11 139 11q41 0 60 -64t6 -82q-33 13 -258 -16q-58 -201 -109.5 -494.5t-44.5 -404.5 q150 14 190 14q22 0 39.5 -22t24.5 -49t10.5 -52t-2.5 -31q-34 15 -332.5 -25t-312.5 -40q-24 0 -50 38t-35 80zM406 1366q15 -2 62.5 58.5t88 128.5t39.5 85q44 -3 97.5 -34t56.5 -66q-1 -13 -53.5 -66.5t-114.5 -102t-84 -48.5q-17 0 -52.5 19.5t-39.5 25.5z" />
<glyph unicode="&#xce;" horiz-adv-x="677" d="M-83 69q-9 42 1 72q9 -28 358 4q-51 26 -61 64q-15 55 21 327t88 488q-140 -18 -164 -18t-50 36t-35 76.5t1 69.5q7 -25 295 -2q33 90 57 90q23 0 81.5 -20.5t82.5 -49.5q112 11 139 11q41 0 60 -64t6 -82q-33 13 -258 -16q-58 -201 -109.5 -494.5t-44.5 -404.5 q150 14 190 14q22 0 39.5 -22t24.5 -49t10.5 -52t-2.5 -31q-34 15 -332.5 -25t-312.5 -40q-24 0 -50 38t-35 80zM330 1370q0 17 32.5 75.5t86 114.5t96.5 56q71 0 106 -49q31 -40 57 -113t23 -98q-4 -33 -65.5 -49.5t-83.5 -10.5q4 27 -15.5 116t-40.5 89t-72.5 -75.5 t-60.5 -98.5q-17 0 -40 17t-23 26z" />
<glyph unicode="&#xcf;" horiz-adv-x="677" d="M-83 69q-9 42 1 72q9 -28 358 4q-51 26 -61 64q-15 55 21 327t88 488q-140 -18 -164 -18t-50 36t-35 76.5t1 69.5q7 -25 295 -2q33 90 57 90q23 0 81.5 -20.5t82.5 -49.5q112 11 139 11q41 0 60 -64t6 -82q-33 13 -258 -16q-58 -201 -109.5 -494.5t-44.5 -404.5 q150 14 190 14q22 0 39.5 -22t24.5 -49t10.5 -52t-2.5 -31q-34 15 -332.5 -25t-312.5 -40q-24 0 -50 38t-35 80zM313 1393q-15 50 7 108t73 58q33 0 72 -24t39 -62q0 -51 -22 -91.5t-60 -40.5q-26 0 -59 12.5t-50 39.5zM565 1433q1 35 23 65t55 30t74.5 -23.5t44.5 -64.5 q-2 -49 -25.5 -89t-68.5 -40q-24 0 -55 14t-38 45q-11 28 -10 63z" />
<glyph unicode="&#xd0;" horiz-adv-x="911" d="M-61.5 603.5q1.5 21.5 6.5 27.5q15 -8 143 -4q40 249 86 428q-31 24 -56.5 60t-25.5 54q0 26 45.5 47t102.5 29q25 51 49 51q18 0 133 -59q90 -17 163.5 -56t121 -91t82 -109t52 -116.5t25.5 -107t8 -87.5q0 -169 -74.5 -333.5t-199.5 -270t-260 -105.5q-98 0 -152 72 q-59 14 -103 72t-44 128q0 62 27 259h-52q-33 0 -52 19.5t-23 45t-2.5 47zM217 94q101 12 187 68.5t142.5 134.5t96 171t57 177t17.5 154q0 131 -85 212t-235 81h-6q-55 -186 -108 -451q188 16 204 16q34 0 48.5 -53.5t-3.5 -103.5q-12 12 -274 0q-41 -235 -41 -406z" />
<glyph unicode="&#xd1;" horiz-adv-x="921" d="M-12 143q-7 72 24.5 319t79 471t78.5 224q41 0 103 -26t79 -52q-32 -42 -93 -316t-87 -497q66 196 147 381t153.5 313.5t134.5 206.5t95 78q71 0 151 -57.5t85 -100.5q-94 -197 -166 -543.5t-35 -514.5q21 3 44 14.5t41 26.5t32.5 29.5t22.5 24.5l8 9q19 1 15 -43 q-6 -67 -50 -115q-39 -43 -94 -43q-49 0 -99 60q-72 38 -96 125q-30 104 -4.5 288.5t69.5 355t87 275.5q8 19 10 32.5t-1 19.5t-9 6q-36 0 -145.5 -203.5t-222.5 -460t-169 -422.5q-77 0 -130.5 45.5t-57.5 89.5zM342 1378q-3 60 33.5 114t101.5 54q32 0 68.5 -28.5 t68.5 -57t52 -28.5q25 0 39 18t12 39q0 18 -10 31q12 6 24 6q45 0 49 -72q5 -59 -27.5 -109.5t-95.5 -50.5q-29 0 -59.5 17.5t-51.5 38t-43.5 38t-37.5 17.5q-24 0 -39.5 -18t-15.5 -41q4 -18 8 -25q-18 -6 -27 -6q-22 0 -34.5 18t-14.5 45z" />
<glyph unicode="&#xd2;" horiz-adv-x="919" d="M16 442q0 148 38 305.5t95.5 263.5t112.5 119q33 62 87.5 100t115.5 38q89 0 184 -56q53 -12 96 -35t58 -40q46 -42 71 -129.5t25 -202.5q0 -90 -12.5 -182t-37.5 -185t-66.5 -174t-95 -144t-128 -99.5t-160.5 -36.5q-181 0 -282 126t-101 332zM203 383q0 -128 41 -208.5 t129 -80.5q74 0 139 66t107.5 170t67 227.5t24.5 241.5q0 158 -46.5 257t-138.5 99q-78 0 -135 -65q40 -25 43 -52q-43 0 -98 -102.5t-94 -259t-39 -293.5zM418 1554q-1 16 30 33t70.5 26t63.5 5q-2 -41 44.5 -161.5t65.5 -123.5q1 -3 -10.5 -9t-30.5 -11.5t-35 -5.5 t-64.5 48.5t-91 109.5t-42.5 89z" />
<glyph unicode="&#xd3;" horiz-adv-x="919" d="M16 442q0 148 38 305.5t95.5 263.5t112.5 119q33 62 87.5 100t115.5 38q89 0 184 -56q53 -12 96 -35t58 -40q46 -42 71 -129.5t25 -202.5q0 -90 -12.5 -182t-37.5 -185t-66.5 -174t-95 -144t-128 -99.5t-160.5 -36.5q-181 0 -282 126t-101 332zM203 383q0 -128 41 -208.5 t129 -80.5q74 0 139 66t107.5 170t67 227.5t24.5 241.5q0 158 -46.5 257t-138.5 99q-78 0 -135 -65q40 -25 43 -52q-43 0 -98 -102.5t-94 -259t-39 -293.5zM465 1366q15 -2 62.5 58.5t88 128.5t39.5 85q44 -3 97.5 -34t56.5 -66q-1 -13 -53.5 -66.5t-114.5 -102t-84 -48.5 q-17 0 -52.5 19.5t-39.5 25.5z" />
<glyph unicode="&#xd4;" horiz-adv-x="919" d="M16 442q0 148 38 305.5t95.5 263.5t112.5 119q33 62 87.5 100t115.5 38q89 0 184 -56q53 -12 96 -35t58 -40q46 -42 71 -129.5t25 -202.5q0 -90 -12.5 -182t-37.5 -185t-66.5 -174t-95 -144t-128 -99.5t-160.5 -36.5q-181 0 -282 126t-101 332zM203 383q0 -128 41 -208.5 t129 -80.5q74 0 139 66t107.5 170t67 227.5t24.5 241.5q0 158 -46.5 257t-138.5 99q-78 0 -135 -65q40 -25 43 -52q-43 0 -98 -102.5t-94 -259t-39 -293.5zM375 1364q0 17 32.5 75.5t86 114.5t96.5 56q71 0 106 -49q31 -40 57 -113t23 -98q-4 -33 -65.5 -49.5t-83.5 -10.5 q4 27 -15.5 116t-40.5 89t-72.5 -75.5t-60.5 -98.5q-17 0 -40 17t-23 26z" />
<glyph unicode="&#xd5;" horiz-adv-x="919" d="M16 442q0 148 38 305.5t95.5 263.5t112.5 119q33 62 87.5 100t115.5 38q89 0 184 -56q53 -12 96 -35t58 -40q46 -42 71 -129.5t25 -202.5q0 -90 -12.5 -182t-37.5 -185t-66.5 -174t-95 -144t-128 -99.5t-160.5 -36.5q-181 0 -282 126t-101 332zM203 383q0 -128 41 -208.5 t129 -80.5q74 0 139 66t107.5 170t67 227.5t24.5 241.5q0 158 -46.5 257t-138.5 99q-78 0 -135 -65q40 -25 43 -52q-43 0 -98 -102.5t-94 -259t-39 -293.5zM356 1382q-3 60 34 114t102 54q32 0 68.5 -28.5t68 -57t51.5 -28.5q25 0 39 18t12 39q0 18 -10 31q12 6 24 6 q23 0 35.5 -20.5t14.5 -51.5q5 -59 -27.5 -109.5t-95.5 -50.5q-37 0 -75 28t-69 55.5t-49 27.5q-24 0 -39.5 -18t-15.5 -41q4 -18 8 -25q-18 -6 -26 -6q-22 0 -35 18.5t-15 44.5z" />
<glyph unicode="&#xd6;" horiz-adv-x="919" d="M16 442q0 148 38 305.5t95.5 263.5t112.5 119q33 62 87.5 100t115.5 38q89 0 184 -56q53 -12 96 -35t58 -40q46 -42 71 -129.5t25 -202.5q0 -90 -12.5 -182t-37.5 -185t-66.5 -174t-95 -144t-128 -99.5t-160.5 -36.5q-181 0 -282 126t-101 332zM203 383q0 -128 41 -208.5 t129 -80.5q74 0 139 66t107.5 170t67 227.5t24.5 241.5q0 158 -46.5 257t-138.5 99q-78 0 -135 -65q40 -25 43 -52q-43 0 -98 -102.5t-94 -259t-39 -293.5zM365 1376q-15 51 6.5 108.5t72.5 57.5q33 0 72 -24t39 -62q0 -51 -21.5 -91t-60.5 -40q-26 0 -58.5 12t-49.5 39z M617 1416.5q1 34.5 22.5 64.5t54.5 30t74.5 -23.5t44.5 -64.5q-2 -49 -25.5 -89t-68.5 -40q-24 0 -54.5 14.5t-37.5 45.5q-11 28 -10 62.5z" />
<glyph unicode="&#xd7;" horiz-adv-x="864" d="M168 301q0 43 162 209q-68 97 -114 179.5t-46 111.5q0 21 22 46t50.5 41t57 23t40.5 -8q0 -20 34.5 -97t84.5 -167l37 37t38 37.5t34.5 35t34.5 35.5t30.5 31.5t28.5 31t23.5 27t21 25.5t14.5 21q28 0 46.5 -45.5t18.5 -77.5q0 -13 -16.5 -36t-59 -64.5t-69 -66.5 t-92.5 -85q-15 -14 -23 -21q139 -217 234 -239q24 -22 -10 -47q-42 -32 -110 -26q-51 5 -93 36q-47 34 -146 162q-144 -134 -176 -191q-19 -7 -38 26.5t-19 55.5z" />
<glyph unicode="&#xd8;" horiz-adv-x="919" d="M14 -41q0 35 82 180q-80 118 -80 303q0 148 38 305.5t95.5 263.5t112.5 119q33 62 87.5 100t115.5 38q89 0 184 -56q48 -13 82 -30q84 154 66 164q41 3 75.5 -34t36.5 -71q0 -26 -71 -149q61 -98 61 -287q0 -90 -12.5 -182t-37.5 -185t-66.5 -174t-95 -144t-128 -99.5 t-160.5 -36.5q-133 0 -223 69q-81 -128 -100 -174q-7 -4 -22 5.5t-27.5 30t-12.5 44.5zM203 383q0 -39 2 -57q60 98 224 358.5t233 376.5q-51 94 -136 94q-78 0 -135 -65q40 -25 43 -52q-43 0 -98 -102.5t-94 -259t-39 -293.5zM248 166q43 -72 125 -72q74 0 139 66 t107.5 170t67 227.5t24.5 241.5q0 26 -4 80q-80 -126 -245.5 -381.5t-213.5 -331.5z" />
<glyph unicode="&#xd9;" horiz-adv-x="878" d="M25 195q-14 111 20 357.5t84.5 447t79.5 200.5q35 0 93 -25t75 -55q-18 -35 -48.5 -148.5t-59 -256t-49.5 -278.5t-19.5 -228t30.5 -92q26 0 60.5 41.5t70.5 115t72 157.5t73 186t65 181.5t56.5 164t39.5 114.5q49 189 75 189q40 0 100 -27t77 -53q-26 -36 -79 -258 t-94 -483t-34 -377q29 11 60 35.5t47 43.5l16 19q19 1 15 -43q-6 -67 -50 -115q-39 -43 -94 -43q-45 0 -101 60q-72 27 -78 75q-13 83 27 381q-160 -475 -285 -475q-94 0 -165 55.5t-80 133.5zM348 1513q-1 16 30 33t70.5 26t63.5 5q-2 -41 45 -161.5t66 -123.5 q1 -3 -10.5 -9t-30.5 -11.5t-35 -5.5t-64.5 48.5t-91.5 109.5t-43 89z" />
<glyph unicode="&#xda;" horiz-adv-x="878" d="M25 195q-14 111 20 357.5t84.5 447t79.5 200.5q35 0 93 -25t75 -55q-18 -35 -48.5 -148.5t-59 -256t-49.5 -278.5t-19.5 -228t30.5 -92q26 0 60.5 41.5t70.5 115t72 157.5t73 186t65 181.5t56.5 164t39.5 114.5q49 189 75 189q40 0 100 -27t77 -53q-26 -36 -79 -258 t-94 -483t-34 -377q29 11 60 35.5t47 43.5l16 19q19 1 15 -43q-6 -67 -50 -115q-39 -43 -94 -43q-45 0 -101 60q-72 27 -78 75q-13 83 27 381q-160 -475 -285 -475q-94 0 -165 55.5t-80 133.5zM451 1325q15 -2 62.5 58.5t88 128.5t39.5 85q44 -3 97.5 -34t56.5 -66 q-1 -13 -53.5 -66.5t-114.5 -102t-84 -48.5q-17 0 -52.5 19.5t-39.5 25.5z" />
<glyph unicode="&#xdb;" horiz-adv-x="878" d="M25 195q-14 111 20 357.5t84.5 447t79.5 200.5q35 0 93 -25t75 -55q-18 -35 -48.5 -148.5t-59 -256t-49.5 -278.5t-19.5 -228t30.5 -92q26 0 60.5 41.5t70.5 115t72 157.5t73 186t65 181.5t56.5 164t39.5 114.5q49 189 75 189q40 0 100 -27t77 -53q-26 -36 -79 -258 t-94 -483t-34 -377q29 11 60 35.5t47 43.5l16 19q19 1 15 -43q-6 -67 -50 -115q-39 -43 -94 -43q-45 0 -101 60q-72 27 -78 75q-13 83 27 381q-160 -475 -285 -475q-94 0 -165 55.5t-80 133.5zM340 1366q0 17 32.5 75.5t86 114.5t96.5 56q72 0 107 -49q30 -40 56 -113 t23 -98q-4 -33 -65.5 -49.5t-83.5 -10.5q4 27 -15 116t-40 89t-73 -75.5t-61 -98.5q-17 0 -40 17t-23 26z" />
<glyph unicode="&#xdc;" horiz-adv-x="878" d="M25 195q-14 111 20 357.5t84.5 447t79.5 200.5q35 0 93 -25t75 -55q-18 -35 -48.5 -148.5t-59 -256t-49.5 -278.5t-19.5 -228t30.5 -92q26 0 60.5 41.5t70.5 115t72 157.5t73 186t65 181.5t56.5 164t39.5 114.5q49 189 75 189q40 0 100 -27t77 -53q-26 -36 -79 -258 t-94 -483t-34 -377q29 11 60 35.5t47 43.5l16 19q19 1 15 -43q-6 -67 -50 -115q-39 -43 -94 -43q-45 0 -101 60q-72 27 -78 75q-13 83 27 381q-160 -475 -285 -475q-94 0 -165 55.5t-80 133.5zM344 1391q-15 50 7 107.5t73 57.5q33 0 72 -24t39 -62q0 -51 -21.5 -91 t-60.5 -40q-26 0 -59 12.5t-50 39.5zM596 1431q1 35 23 65t55 30t74.5 -23.5t44.5 -64.5q-2 -49 -26 -89t-69 -40q-24 0 -54.5 14t-37.5 45q-11 28 -10 63z" />
<glyph unicode="&#xdd;" horiz-adv-x="837" d="M25 195q-14 111 20.5 352.5t84.5 437t79 195.5q35 0 93 -25t75 -55q-18 -35 -48.5 -146.5t-59 -251t-49.5 -272.5t-19.5 -223t30.5 -90q27 0 61.5 42t71 116.5t72.5 159t73.5 187t65.5 183t56 163.5t39 113q48 183 75 183q25 0 83 -19t79 -49q-26 -54 -89.5 -347 t-112 -627t-29.5 -451q-7 -15 -38 -17.5t-64.5 6t-60.5 30t-28 48.5q-6 184 62 619q-154 -451 -277 -451q-94 0 -165 55.5t-80 133.5zM442 1307q15 -2 63 58.5t88.5 128.5t39.5 85q44 -3 97 -34t56 -66q-1 -13 -53.5 -66.5t-114 -102t-83.5 -48.5q-17 0 -53 19.5t-40 25.5z " />
<glyph unicode="&#xde;" horiz-adv-x="1150" d="M20 840q0 61 138.5 121.5t322.5 91.5q52 225 80 225q40 0 101.5 -27t78.5 -53q-17 -23 -45 -127q108 -1 196.5 -36t143.5 -90t85 -122t30 -137t-36 -142t-91.5 -128.5t-119 -102t-122.5 -70t-98 -24.5q-64 0 -135 84q-31 -254 -4 -309q-31 -12 -75 -2.5t-85 37.5t-45 55 q-6 62 26.5 306.5t77.5 483.5q-101 -30 -175 -70t-105 -79q23 -32 63.5 -39.5t68.5 -9t28 -17.5q0 -20 -46 -41.5t-94 -21.5q-56 0 -86 32.5t-30 73.5q0 13 2 19q-21 28 -35.5 63.5t-14.5 55.5zM555 356q102 20 207.5 87.5t177.5 164t72 187.5q0 37 -22.5 63.5t-59.5 39.5 t-72.5 18.5t-71.5 5.5q-55 0 -127 -7q-66 -283 -104 -559z" />
<glyph unicode="&#xdf;" horiz-adv-x="765" d="M31 66q0 171 40.5 430.5t102 469.5t113.5 232q11 7 44 4.5t64 -16.5q23 12 59.5 12.5t76 -11t74.5 -31.5t58 -55t23 -77q0 -37 -19 -82t-41.5 -80t-41.5 -79.5t-19 -80.5q0 -39 23 -97t51 -110t51 -119.5t23 -123.5v-16q99 102 159 292q3 2 7 2q12 0 31.5 -13t19.5 -25 q-29 -141 -102.5 -250.5t-165.5 -149.5q-77 -101 -232 -104q-75 0 -131.5 34t-89.5 89q-2 -31 -2 -84q0 -61 8 -82q-5 -8 -35 -8q-48 0 -94 22t-53 68q-2 14 -2 39zM233 336h11q27 0 71 -16t111 -46.5t92 -40.5q2 6 2 21q0 47 -20 104.5t-43.5 104.5t-43.5 109.5t-20 117.5 q0 59 22.5 130.5t45 132t22.5 91.5q0 49 -45 72q-52 -57 -111 -291t-94 -489zM299 186q0 -34 19 -63t55 -29q28 0 64.5 17t58.5 53q-139 53 -172 53q-25 0 -25 -31z" />
<glyph unicode="&#xe0;" d="M20 231q-7 63 1 143.5t32.5 163t60.5 151.5t89.5 113t115.5 44q45 0 117 -32.5t122 -84t26 -94.5l-6 -8q70 -32 90 -88q-45 -130 -61 -242.5t20 -124.5q38 0 88.5 86.5t82.5 173.5l31 86h7q13 0 31 -9t18 -17q1 -6 -12 -50.5t-38.5 -109.5t-58.5 -127t-79.5 -106 t-94.5 -44q-81 0 -131.5 52t-58.5 131q-2 4 -2 14q-35 -112 -80.5 -176t-112.5 -64q-62 0 -123.5 57t-73.5 162zM210 270q-8 -132 30 -133q69 0 219 477q-18 113 -66 113q-64 0 -121 -156q-53 -147 -62 -301zM242 1147q-1 16 30 33t70.5 25.5t63.5 4.5q-2 -41 44.5 -161 t65.5 -123q1 -3 -10.5 -9.5t-30.5 -12t-35 -5.5t-64.5 49t-91 110t-42.5 89z" />
<glyph unicode="&#xe1;" d="M20 231q-7 63 1 143.5t32.5 163t60.5 151.5t89.5 113t115.5 44q45 0 117 -32.5t122 -84t26 -94.5l-6 -8q70 -32 90 -88q-45 -130 -61 -242.5t20 -124.5q38 0 88.5 86.5t82.5 173.5l31 86h7q13 0 31 -9t18 -17q1 -6 -12 -50.5t-38.5 -109.5t-58.5 -127t-79.5 -106 t-94.5 -44q-81 0 -131.5 52t-58.5 131q-2 4 -2 14q-35 -112 -80.5 -176t-112.5 -64q-62 0 -123.5 57t-73.5 162zM210 270q-8 -132 30 -133q69 0 219 477q-18 113 -66 113q-64 0 -121 -156q-53 -147 -62 -301zM313 932q15 -2 63 58.5t88.5 128.5t39.5 85q44 -3 97 -34t56 -66 q-1 -13 -53.5 -66.5t-114 -102t-83.5 -48.5q-17 0 -53 19.5t-40 25.5z" />
<glyph unicode="&#xe2;" d="M20 231q-7 63 1 143.5t32.5 163t60.5 151.5t89.5 113t115.5 44q45 0 117 -32.5t122 -84t26 -94.5l-6 -8q70 -32 90 -88q-45 -130 -61 -242.5t20 -124.5q38 0 88.5 86.5t82.5 173.5l31 86h7q13 0 31 -9t18 -17q1 -6 -12 -50.5t-38.5 -109.5t-58.5 -127t-79.5 -106 t-94.5 -44q-81 0 -131.5 52t-58.5 131q-2 4 -2 14q-35 -112 -80.5 -176t-112.5 -64q-62 0 -123.5 57t-73.5 162zM210 270q-8 -132 30 -133q69 0 219 477q-18 113 -66 113q-64 0 -121 -156q-53 -147 -62 -301zM229 950q0 17 32.5 75.5t86 114.5t96.5 56q72 0 107 -49 q31 -40 57 -113t23 -98q-4 -33 -66 -49t-84 -10q4 27 -15 115.5t-40 88.5t-72.5 -75.5t-60.5 -98.5q-17 0 -40.5 17t-23.5 26z" />
<glyph unicode="&#xe3;" d="M20 231q-7 63 1 143.5t32.5 163t60.5 151.5t89.5 113t115.5 44q45 0 117 -32.5t122 -84t26 -94.5l-6 -8q70 -32 90 -88q-45 -130 -61 -242.5t20 -124.5q38 0 88.5 86.5t82.5 173.5l31 86h7q13 0 31 -9t18 -17q1 -6 -12 -50.5t-38.5 -109.5t-58.5 -127t-79.5 -106 t-94.5 -44q-81 0 -131.5 52t-58.5 131q-2 4 -2 14q-35 -112 -80.5 -176t-112.5 -64q-62 0 -123.5 57t-73.5 162zM207 975q-3 60 33.5 114t101.5 54q25 0 53.5 -18t50 -39.5t45 -39.5t39.5 -18q25 0 39.5 18t12.5 39q0 16 -11 31q12 6 25 6q45 0 49 -71q5 -59 -27.5 -109.5 t-95.5 -50.5q-37 0 -75 27.5t-68 55t-49 27.5q-24 0 -40 -18t-16 -41q3 -12 9 -24q-21 -7 -27 -7q-22 0 -34.5 18.5t-14.5 45.5zM210 270q-8 -132 30 -133q69 0 219 477q-18 113 -66 113q-64 0 -121 -156q-53 -147 -62 -301z" />
<glyph unicode="&#xe4;" d="M20 231q-7 63 1 143.5t32.5 163t60.5 151.5t89.5 113t115.5 44q45 0 117 -32.5t122 -84t26 -94.5l-6 -8q70 -32 90 -88q-45 -130 -61 -242.5t20 -124.5q38 0 88.5 86.5t82.5 173.5l31 86h7q13 0 31 -9t18 -17q1 -6 -12 -50.5t-38.5 -109.5t-58.5 -127t-79.5 -106 t-94.5 -44q-81 0 -131.5 52t-58.5 131q-2 4 -2 14q-35 -112 -80.5 -176t-112.5 -64q-62 0 -123.5 57t-73.5 162zM210 270q-8 -132 30 -133q69 0 219 477q-18 113 -66 113q-64 0 -121 -156q-53 -147 -62 -301zM213 977q-15 50 7 108t73 58q33 0 71.5 -24t38.5 -62 q0 -51 -21.5 -91t-59.5 -40q-27 0 -59.5 12t-49.5 39zM465 1017q1 35 23 65t55 30t74.5 -23.5t44.5 -64.5q-2 -49 -26 -89t-69 -40q-24 0 -54.5 14t-37.5 45q-11 28 -10 63z" />
<glyph unicode="&#xe5;" d="M20 231q-7 63 1 143.5t32.5 163t60.5 151.5t89.5 113t115.5 44q45 0 117 -32.5t122 -84t26 -94.5l-6 -8q70 -32 90 -88q-45 -130 -61 -242.5t20 -124.5q38 0 88.5 86.5t82.5 173.5l31 86h7q13 0 31 -9t18 -17q1 -6 -12 -50.5t-38.5 -109.5t-58.5 -127t-79.5 -106 t-94.5 -44q-81 0 -131.5 52t-58.5 131q-2 4 -2 14q-35 -112 -80.5 -176t-112.5 -64q-62 0 -123.5 57t-73.5 162zM210 270q-8 -132 30 -133q69 0 219 477q-18 113 -66 113q-64 0 -121 -156q-53 -147 -62 -301zM262 1053q0 67 46 124.5t126 57.5q42 0 86 -15.5t79.5 -53.5 t35.5 -91q0 -22 -5 -45t-17.5 -49t-31.5 -46t-51.5 -33t-72.5 -13q-81 0 -138 41.5t-57 122.5zM391 1030q0 -25 11.5 -40t31.5 -15q32 0 52 35t20 77q0 56 -39 56q-33 0 -54.5 -33.5t-21.5 -79.5z" />
<glyph unicode="&#xe6;" horiz-adv-x="954" d="M20 231q-7 63 1 143.5t32.5 163t60.5 151.5t89.5 113t115.5 44q40 0 108 -29t112 -69q62 75 129 75q27 0 57 -12q13 19 34.5 31t37.5 12q62 -16 91.5 -67t29.5 -123q0 -71 -27 -146.5t-72 -130.5t-104 -78t-123 10v-26q0 -70 35.5 -123t99.5 -53q44 0 89.5 28.5t82 72.5 t70 99.5t56.5 106t38 96.5q21 0 37.5 -11.5t19.5 -23.5q-3 -10 -8 -27.5t-24.5 -68t-42.5 -96t-61.5 -101.5t-81.5 -96.5t-103 -68t-125 -27.5q-110 0 -180.5 70t-90.5 178q-70 -236 -149 -236q-49 0 -97 21.5t-88.5 73.5t-48.5 124zM210 270q-8 -132 30 -133q36 0 217 486 q-18 104 -64 104q-64 0 -121 -156q-53 -147 -62 -301zM598 377q1 0 3 1t3 1q42 -9 78 15.5t57 68t32.5 91t7.5 89.5t-21 59q-48 -28 -95.5 -123.5t-64.5 -201.5z" />
<glyph unicode="&#xe7;" horiz-adv-x="552" d="M16 326q0 111 38.5 227t102.5 193t130 77q35 0 88 -24q29 22 57 22q38 0 75 -45t40 -98q0 -114 -55.5 -193t-116.5 -79q-43 0 -58 32q24 2 56.5 71.5t32.5 135.5q0 24 -11 66q-29 -7 -61.5 -49t-59.5 -100.5t-45 -131.5t-18 -137q0 -75 26.5 -125.5t88.5 -50.5 q44 0 89.5 28.5t82 72.5t70 99.5t56.5 106t38 96.5q21 0 37.5 -11.5t19.5 -23.5q-2 -9 -6.5 -23.5t-21 -58.5t-36 -85.5t-52.5 -93.5t-69 -93t-86.5 -75.5t-105.5 -47.5q37 -29 48 -86.5t-5 -114.5t-67.5 -100t-127.5 -43q-74 0 -106.5 34.5t-32.5 70.5q0 20 10 20 q21 -18 60 -18q57 0 109.5 33t52.5 73q0 8 -2.5 15t-8 12t-10.5 8.5t-13.5 6t-12.5 3.5t-13 2.5t-10 1.5q-26 6 -26 32t24 48q-97 22 -146 111.5t-49 208.5z" />
<glyph unicode="&#xe8;" horiz-adv-x="573" d="M16 326q0 111 38.5 227t102.5 193t130 77q27 0 57 -12q13 19 34.5 31t37.5 12q62 -16 91.5 -67t29.5 -123q0 -71 -26.5 -146.5t-71.5 -130.5t-104 -78t-124 10v-26q0 -70 35.5 -123t99.5 -53q54 0 110 42.5t100 108t76 130.5t52 124q21 0 36 -12t19 -25q-3 -10 -8 -27.5 t-24.5 -68t-42.5 -96t-61.5 -101.5t-81.5 -96.5t-103 -68t-125 -27.5q-87 0 -151.5 47.5t-95 120t-30.5 158.5zM217 379q44 -8 81 16.5t58.5 68t33 91t8 89t-20.5 58.5q-48 -28 -95.5 -122.5t-64.5 -200.5zM231 1147q-1 16 30 33t70.5 25.5t63.5 4.5q-1 -41 45.5 -161 t65.5 -123q1 -3 -10.5 -9.5t-30.5 -12t-35 -5.5t-64.5 49t-91.5 110t-43 89z" />
<glyph unicode="&#xe9;" horiz-adv-x="573" d="M16 326q0 111 38.5 227t102.5 193t130 77q27 0 57 -12q13 19 34.5 31t37.5 12q62 -16 91.5 -67t29.5 -123q0 -71 -26.5 -146.5t-71.5 -130.5t-104 -78t-124 10v-26q0 -70 35.5 -123t99.5 -53q54 0 110 42.5t100 108t76 130.5t52 124q21 0 36 -12t19 -25q-3 -10 -8 -27.5 t-24.5 -68t-42.5 -96t-61.5 -101.5t-81.5 -96.5t-103 -68t-125 -27.5q-87 0 -151.5 47.5t-95 120t-30.5 158.5zM217 379q44 -8 81 16.5t58.5 68t33 91t8 89t-20.5 58.5q-48 -28 -95.5 -122.5t-64.5 -200.5zM260 938q15 -2 63 58.5t88.5 128.5t39.5 85q44 -3 97 -34t56 -66 q-1 -13 -53.5 -66.5t-114.5 -102t-84 -48.5q-17 0 -52.5 19.5t-39.5 25.5z" />
<glyph unicode="&#xea;" horiz-adv-x="573" d="M16 326q0 111 38.5 227t102.5 193t130 77q27 0 57 -12q13 19 34.5 31t37.5 12q62 -16 91.5 -67t29.5 -123q0 -71 -26.5 -146.5t-71.5 -130.5t-104 -78t-124 10v-26q0 -70 35.5 -123t99.5 -53q54 0 110 42.5t100 108t76 130.5t52 124q21 0 36 -12t19 -25q-3 -10 -8 -27.5 t-24.5 -68t-42.5 -96t-61.5 -101.5t-81.5 -96.5t-103 -68t-125 -27.5q-87 0 -151.5 47.5t-95 120t-30.5 158.5zM190 958q0 18 33 79t86.5 120.5t96.5 59.5q70 0 106 -50q31 -40 57 -113t23 -98q-4 -33 -66 -49t-84 -10q4 27 -15 116t-40 89t-72 -80.5t-61 -106.5 q-17 0 -40.5 17t-23.5 26zM217 379q44 -8 81 16.5t58.5 68t33 91t8 89t-20.5 58.5q-48 -28 -95.5 -122.5t-64.5 -200.5z" />
<glyph unicode="&#xeb;" horiz-adv-x="573" d="M16 326q0 111 38.5 227t102.5 193t130 77q27 0 57 -12q13 19 34.5 31t37.5 12q62 -16 91.5 -67t29.5 -123q0 -71 -26.5 -146.5t-71.5 -130.5t-104 -78t-124 10v-26q0 -70 35.5 -123t99.5 -53q54 0 110 42.5t100 108t76 130.5t52 124q21 0 36 -12t19 -25q-3 -10 -8 -27.5 t-24.5 -68t-42.5 -96t-61.5 -101.5t-81.5 -96.5t-103 -68t-125 -27.5q-87 0 -151.5 47.5t-95 120t-30.5 158.5zM180 989q-15 50 7 108t73 58q33 0 72 -24t39 -62q0 -51 -21.5 -91t-60.5 -40q-27 0 -59.5 12t-49.5 39zM217 379q44 -8 81 16.5t58.5 68t33 91t8 89t-20.5 58.5 q-48 -28 -95.5 -122.5t-64.5 -200.5zM432 1029.5q1 34.5 23 64.5t55 30t74.5 -23.5t44.5 -64.5q-2 -49 -25.5 -89t-68.5 -40q-24 0 -55 14.5t-38 45.5q-11 28 -10 62.5z" />
<glyph unicode="&#xec;" horiz-adv-x="331" d="M29 215q-5 59 6 182.5t40 238t66 114.5q35 0 89.5 -14t74.5 -42q-22 -39 -59 -208.5t-37 -260.5q0 -69 29 -69q38 0 88.5 90.5t81.5 181.5l32 90h6q13 0 31.5 -9t18.5 -17q1 -6 -12 -52.5t-38.5 -113.5t-58.5 -131.5t-79.5 -110t-94.5 -45.5q-57 0 -117 45t-67 131z M72 1147q-1 16 30 33t70.5 25.5t63.5 4.5q-2 -41 44.5 -161t65.5 -123q1 -3 -10.5 -9.5t-30.5 -12t-35 -5.5t-64.5 49t-91 110t-42.5 89z" />
<glyph unicode="&#xed;" horiz-adv-x="331" d="M29 215q-5 59 6 182.5t40 238t66 114.5q35 0 89.5 -14t74.5 -42q-22 -39 -59 -208.5t-37 -260.5q0 -69 29 -69q38 0 88.5 90.5t81.5 181.5l32 90h6q13 0 31.5 -9t18.5 -17q1 -6 -12 -52.5t-38.5 -113.5t-58.5 -131.5t-79.5 -110t-94.5 -45.5q-57 0 -117 45t-67 131z M125 938q15 -2 62.5 58.5t88 128.5t39.5 85q44 -3 97.5 -34t56.5 -66q-1 -13 -53.5 -66.5t-114.5 -102t-84 -48.5q-17 0 -52.5 19.5t-39.5 25.5z" />
<glyph unicode="&#xee;" horiz-adv-x="331" d="M29 215q-5 59 6 182.5t40 238t66 114.5q35 0 89.5 -14t74.5 -42q-22 -39 -59 -208.5t-37 -260.5q0 -69 29 -69q38 0 88.5 90.5t81.5 181.5l32 90h6q13 0 31.5 -9t18.5 -17q1 -6 -12 -52.5t-38.5 -113.5t-58.5 -131.5t-79.5 -110t-94.5 -45.5q-57 0 -117 45t-67 131z M80 950q0 17 32.5 75.5t86 114.5t96.5 56q71 0 106 -49q31 -40 57 -113t23 -98q-4 -33 -65.5 -49t-83.5 -10q4 27 -15.5 115.5t-40.5 88.5t-72.5 -75.5t-60.5 -98.5q-17 0 -40 17t-23 26z" />
<glyph unicode="&#xef;" horiz-adv-x="331" d="M29 215q-5 59 6 182.5t40 238t66 114.5q35 0 89.5 -14t74.5 -42q-22 -39 -59 -208.5t-37 -260.5q0 -69 29 -69q38 0 88.5 90.5t81.5 181.5l32 90h6q13 0 31.5 -9t18.5 -17q1 -6 -12 -52.5t-38.5 -113.5t-58.5 -131.5t-79.5 -110t-94.5 -45.5q-57 0 -117 45t-67 131z M45 985q-15 50 7 108t73 58q33 0 72 -24t39 -62q0 -51 -21.5 -91t-60.5 -40q-27 0 -59.5 12t-49.5 39zM297 1025.5q1 34.5 23 64.5t55 30t74.5 -23.5t44.5 -64.5q-2 -49 -26 -89t-69 -40q-24 0 -54.5 14.5t-37.5 45.5q-11 28 -10 62.5z" />
<glyph unicode="&#xf0;" horiz-adv-x="675" d="M16 289q0 83 20.5 175.5t57 175t96 136t129.5 53.5q55 0 140 -45q-3 56 -13 142q-73 -15 -86 -15q-31 0 -49 11.5t-21 28t-1.5 29t4.5 19.5q18 -2 135 35q-7 38 -29 135q70 45 146 45q52 0 84 -118q70 18 92 18q30 0 49 -35t16 -75q-7 5 -137 -27q7 -77 9 -166t-10 -184 t-30.5 -186t-52 -172.5t-74.5 -143t-99.5 -97.5t-125.5 -36q-35 0 -77 20.5t-81.5 56.5t-65.5 94.5t-26 125.5zM207 209q0 -43 10 -69.5t27 -26.5q64 0 127.5 150.5t81.5 361.5q-18 86 -60 86q-48 0 -92.5 -91t-69 -206.5t-24.5 -204.5z" />
<glyph unicode="&#xf1;" horiz-adv-x="733" d="M39 227q-10 112 29.5 333.5t68.5 221.5q110 0 178 -63q-41 -99 -82 -275q58 143 138 264t112 121q62 0 144 -61t82 -92q-21 -38 -58.5 -165t-54 -241t28.5 -123q24 0 55 38t58.5 92.5t51.5 109.5t38 93l14 38q8 2 21.5 -1.5t24 -10.5t9.5 -14q-1 -19 -23.5 -88.5 t-58.5 -155t-90.5 -151.5t-108.5 -66q-83 0 -141 52t-67 130q-14 132 71 442q10 35 -6 34q-14 -1 -37 -32q-30 -44 -59 -95.5t-65 -129t-61.5 -171.5t-31.5 -187q-70 0 -121 43.5t-59 109.5zM231 969q-3 60 34 114t102 54q25 0 53.5 -18t50 -39.5t45 -39.5t39.5 -18 q25 0 39 18t12 39q0 18 -10 31q12 6 25 6q45 0 49 -72q5 -59 -27.5 -109t-95.5 -50q-37 0 -75 27.5t-68.5 55t-49.5 27.5q-24 0 -39.5 -18t-15.5 -41q5 -18 8 -25q-18 -6 -26 -6q-22 0 -35 18.5t-15 45.5z" />
<glyph unicode="&#xf2;" horiz-adv-x="641" d="M16 324q0 92 25.5 186.5t63.5 154.5t73 60h4q12 39 42.5 63.5t64.5 24.5q57 0 127.5 -36t103.5 -64q76 -67 76 -240q0 -61 -14 -143q122 38 170 200q1 4 14 -0.5t26 -14.5t13 -19q-20 -107 -90.5 -179t-161.5 -88q-39 -107 -107.5 -172t-160.5 -65q-67 0 -120.5 30 t-85 79.5t-47.5 106.5t-16 116zM199 223q0 -129 63 -129q64 0 121 148q-100 34 -168 123q-16 -78 -16 -142zM242 1126q-1 16 30 33t70.5 26t63.5 5q-2 -41 44.5 -161.5t65.5 -123.5q1 -3 -10.5 -9t-30.5 -11.5t-35 -5.5t-64.5 48.5t-91 109.5t-42.5 89zM258 504 q59 -121 156 -164q30 123 30 219q0 70 -16.5 112t-50.5 42q-30 0 -68 -33q43 -21 43 -41q0 -6 -4 -10q-49 -21 -90 -125z" />
<glyph unicode="&#xf3;" horiz-adv-x="641" d="M16 324q0 92 25.5 186.5t63.5 154.5t73 60h4q12 39 42.5 63.5t64.5 24.5q57 0 127.5 -36t103.5 -64q76 -67 76 -240q0 -61 -14 -143q122 38 170 200q1 4 14 -0.5t26 -14.5t13 -19q-20 -107 -90.5 -179t-161.5 -88q-39 -107 -107.5 -172t-160.5 -65q-67 0 -120.5 30 t-85 79.5t-47.5 106.5t-16 116zM199 223q0 -129 63 -129q64 0 121 148q-100 34 -168 123q-16 -78 -16 -142zM258 504q59 -121 156 -164q30 123 30 219q0 70 -16.5 112t-50.5 42q-30 0 -68 -33q43 -21 43 -41q0 -6 -4 -10q-49 -21 -90 -125zM285 924q15 -2 62.5 58.5 t88 128.5t39.5 85q44 -3 97.5 -34t56.5 -66q-1 -13 -53.5 -66.5t-114.5 -102t-84 -48.5q-17 0 -52.5 19.5t-39.5 25.5z" />
<glyph unicode="&#xf4;" horiz-adv-x="641" d="M16 324q0 92 25.5 186.5t63.5 154.5t73 60h4q12 39 42.5 63.5t64.5 24.5q57 0 127.5 -36t103.5 -64q76 -67 76 -240q0 -61 -14 -143q122 38 170 200q1 4 14 -0.5t26 -14.5t13 -19q-20 -107 -90.5 -179t-161.5 -88q-39 -107 -107.5 -172t-160.5 -65q-67 0 -120.5 30 t-85 79.5t-47.5 106.5t-16 116zM199 223q0 -129 63 -129q64 0 121 148q-100 34 -168 123q-16 -78 -16 -142zM215 950q0 17 32.5 75.5t86 114.5t96.5 56q72 0 107 -49q30 -40 56 -113t23 -98q-4 -33 -65.5 -49t-83.5 -10q4 27 -15 115.5t-40 88.5t-72.5 -75.5t-60.5 -98.5 q-17 0 -40.5 17t-23.5 26zM258 504q59 -121 156 -164q30 123 30 219q0 70 -16.5 112t-50.5 42q-30 0 -68 -33q43 -21 43 -41q0 -6 -4 -10q-49 -21 -90 -125z" />
<glyph unicode="&#xf5;" horiz-adv-x="641" d="M16 324q0 92 25.5 186.5t63.5 154.5t73 60h4q12 39 42.5 63.5t64.5 24.5q57 0 127.5 -36t103.5 -64q76 -67 76 -240q0 -61 -14 -143q122 38 170 200q1 4 14 -0.5t26 -14.5t13 -19q-20 -107 -90.5 -179t-161.5 -88q-39 -107 -107.5 -172t-160.5 -65q-67 0 -120.5 30 t-85 79.5t-47.5 106.5t-16 116zM193 989q-3 60 33.5 114t101.5 54q25 0 53.5 -18t50 -39.5t45 -39.5t39.5 -18q24 0 38.5 18.5t12.5 39.5q0 17 -10 30q14 7 25 7q45 0 49 -72q5 -59 -27.5 -109.5t-95.5 -50.5q-37 0 -75 27.5t-68.5 55.5t-49.5 28q-24 0 -39.5 -18.5 t-15.5 -41.5q4 -16 8 -24q-18 -6 -26 -6q-22 0 -34.5 18t-14.5 45zM199 223q0 -129 63 -129q64 0 121 148q-100 34 -168 123q-16 -78 -16 -142zM258 504q59 -121 156 -164q30 123 30 219q0 70 -16.5 112t-50.5 42q-30 0 -68 -33q43 -21 43 -41q0 -6 -4 -10q-49 -21 -90 -125 z" />
<glyph unicode="&#xf6;" horiz-adv-x="641" d="M16 324q0 92 25.5 186.5t63.5 154.5t73 60h4q12 39 42.5 63.5t64.5 24.5q57 0 127.5 -36t103.5 -64q76 -67 76 -240q0 -61 -14 -143q122 38 170 200q1 4 14 -0.5t26 -14.5t13 -19q-20 -107 -90.5 -179t-161.5 -88q-39 -107 -107.5 -172t-160.5 -65q-67 0 -120.5 30 t-85 79.5t-47.5 106.5t-16 116zM199 223q0 -129 63 -129q64 0 121 148q-100 34 -168 123q-16 -78 -16 -142zM201 985q-15 50 7 108t73 58q33 0 71.5 -24t38.5 -62q0 -51 -21.5 -91t-60.5 -40q-26 0 -58.5 12t-49.5 39zM258 504q59 -121 156 -164q30 123 30 219 q0 70 -16.5 112t-50.5 42q-30 0 -68 -33q43 -21 43 -41q0 -6 -4 -10q-49 -21 -90 -125zM453 1025.5q1 34.5 22.5 64.5t54.5 30t74.5 -23.5t44.5 -64.5q-2 -49 -25.5 -89t-68.5 -40q-24 0 -54.5 14.5t-37.5 45.5q-11 28 -10 62.5z" />
<glyph unicode="&#xf7;" horiz-adv-x="921" d="M83 609q4 20 21 22q7 -25 111.5 -27t269 7.5t207.5 9.5q40 0 73.5 -45t39 -84t-5.5 -46q-28 9 -119 10t-184 -3t-191.5 -8.5t-124.5 -4.5q-37 0 -72 65q-33 63 -25 104zM251.5 241q3.5 42 31 77.5t67.5 35.5q44 0 92.5 -27t51.5 -77q-2 -57 -32.5 -105.5t-80.5 -48.5 q-27 0 -65.5 16.5t-57.5 51.5q-10 35 -6.5 77zM375.5 839q4.5 42 33 77.5t68.5 35.5q42 0 89 -28t50 -78q-4 -56 -32 -104t-78 -48q-29 0 -68 16.5t-57 53.5q-10 33 -5.5 75z" />
<glyph unicode="&#xf8;" horiz-adv-x="641" d="M16 324q0 92 25.5 186.5t63.5 154.5t73 60h4q12 39 42.5 63.5t64.5 24.5q76 0 190 -72q82 147 60 160q41 3 67.5 -23.5t28.5 -60.5q0 -35 -76 -158q37 -70 37 -186q0 -61 -14 -143q122 38 170 200q1 4 14 -0.5t26 -14.5t13 -19q-20 -107 -90.5 -179t-161.5 -88 q-39 -107 -107.5 -172t-160.5 -65q-84 0 -140 41q-58 -95 -77 -139q-8 -4 -18 0t-18.5 19.5t-8.5 39.5q0 37 59 145q-66 92 -66 226zM205 301q178 284 225 361q-16 51 -53 51q-30 0 -68 -33q43 -21 43 -41q0 -6 -4 -10q-45 -19 -87 -119t-56 -209zM211 133q16 -39 51 -39 q38 0 74.5 55.5t64.5 143.5q-16 39 -16 100q-165 -247 -174 -260z" />
<glyph unicode="&#xf9;" horiz-adv-x="710" d="M31 250q-9 66 12 210t56.5 264t62.5 120q39 0 94 -24.5t74 -53.5q-25 -45 -76.5 -251t-42.5 -279q3 -33 22 -33q24 0 56 50t64.5 130.5t56 147.5t43.5 133q27 127 67 127q35 0 89.5 -14t74.5 -42q-21 -37 -58.5 -227.5t-37.5 -282.5q0 -69 28 -69q36 0 87 90.5t83 181.5 l33 90h6q13 0 31 -9t18 -17q1 -6 -11.5 -52.5t-38 -113.5t-58.5 -131.5t-79.5 -110t-94.5 -45.5q-57 0 -117 45t-67 131q-2 16 -2 76q-79 -215 -193 -215q-78 0 -124.5 48t-57.5 126zM262 1128q-1 16 30 33t70.5 26t63.5 5q-2 -41 45 -161.5t66 -123.5q1 -3 -10.5 -9 t-30.5 -11.5t-35 -5.5t-64.5 48.5t-91.5 109.5t-43 89z" />
<glyph unicode="&#xfa;" horiz-adv-x="710" d="M31 250q-9 66 12 210t56.5 264t62.5 120q39 0 94 -24.5t74 -53.5q-25 -45 -76.5 -251t-42.5 -279q3 -33 22 -33q24 0 56 50t64.5 130.5t56 147.5t43.5 133q27 127 67 127q35 0 89.5 -14t74.5 -42q-21 -37 -58.5 -227.5t-37.5 -282.5q0 -69 28 -69q36 0 87 90.5t83 181.5 l33 90h6q13 0 31 -9t18 -17q1 -6 -11.5 -52.5t-38 -113.5t-58.5 -131.5t-79.5 -110t-94.5 -45.5q-57 0 -117 45t-67 131q-2 16 -2 76q-79 -215 -193 -215q-78 0 -124.5 48t-57.5 126zM344 926q15 -2 63 58.5t88.5 128.5t39.5 85q44 -3 97 -34t56 -66q-1 -13 -53.5 -66.5 t-114.5 -102t-84 -48.5q-17 0 -52.5 19.5t-39.5 25.5z" />
<glyph unicode="&#xfb;" horiz-adv-x="710" d="M31 250q-9 66 12 210t56.5 264t62.5 120q39 0 94 -24.5t74 -53.5q-25 -45 -76.5 -251t-42.5 -279q3 -33 22 -33q24 0 56 50t64.5 130.5t56 147.5t43.5 133q27 127 67 127q35 0 89.5 -14t74.5 -42q-21 -37 -58.5 -227.5t-37.5 -282.5q0 -69 28 -69q36 0 87 90.5t83 181.5 l33 90h6q13 0 31 -9t18 -17q1 -6 -11.5 -52.5t-38 -113.5t-58.5 -131.5t-79.5 -110t-94.5 -45.5q-57 0 -117 45t-67 131q-2 16 -2 76q-79 -215 -193 -215q-78 0 -124.5 48t-57.5 126zM252 950q0 17 32.5 75.5t86 114.5t96.5 56q71 0 106 -49q31 -40 57 -113t23 -98 q-4 -33 -65.5 -49t-83.5 -10q4 27 -15 115.5t-40 88.5t-73 -75.5t-61 -98.5q-17 0 -40 17t-23 26z" />
<glyph unicode="&#xfc;" horiz-adv-x="710" d="M31 250q-9 66 12 210t56.5 264t62.5 120q39 0 94 -24.5t74 -53.5q-25 -45 -76.5 -251t-42.5 -279q3 -33 22 -33q24 0 56 50t64.5 130.5t56 147.5t43.5 133q27 127 67 127q35 0 89.5 -14t74.5 -42q-21 -37 -58.5 -227.5t-37.5 -282.5q0 -69 28 -69q36 0 87 90.5t83 181.5 l33 90h6q13 0 31 -9t18 -17q1 -6 -11.5 -52.5t-38 -113.5t-58.5 -131.5t-79.5 -110t-94.5 -45.5q-57 0 -117 45t-67 131q-2 16 -2 76q-79 -215 -193 -215q-78 0 -124.5 48t-57.5 126zM240 985q-15 51 6.5 108.5t72.5 57.5q33 0 72 -24t39 -62q0 -51 -21.5 -91t-60.5 -40 q-26 0 -58.5 12t-49.5 39zM492 1025.5q1 34.5 22.5 64.5t54.5 30t74.5 -23.5t44.5 -64.5q-2 -49 -25.5 -89t-68.5 -40q-24 0 -54.5 14.5t-37.5 45.5q-11 28 -10 62.5z" />
<glyph unicode="&#xfd;" horiz-adv-x="708" d="M-150 -180q-18 163 161 191q91 14 301 -8q28 -3 32 -3q38 127 70 303q-81 -227 -199 -227q-78 0 -125.5 48t-58.5 126q-9 66 11 212t54.5 268t61.5 122q37 0 93.5 -30.5t76.5 -61.5q-25 -45 -74.5 -248t-40.5 -276q3 -33 23 -33q13 0 29.5 17t33 47.5t34 67.5t34.5 82 t32 86.5t29.5 84.5t23.5 72t17 54.5t8 26.5v2h6q60 -2 113.5 -21.5t62.5 -47.5q2 -51 -32.5 -251.5t-94.5 -385.5q81 76 166 226t121 267q20 1 37.5 -11t15.5 -21q-21 -108 -83.5 -237.5t-148 -232.5t-159.5 -124q-143 -344 -329 -344q-100 0 -198 83t-104 177zM10 -190 q2 -54 38 -102t83 -48q100 0 184 250q-67 5 -114 5t-95.5 -8t-72.5 -32.5t-23 -64.5zM358 918q15 -2 63 58.5t88.5 128.5t39.5 85q44 -3 97 -34t56 -66q-2 -23 -110 -120.5t-141 -97.5q-16 0 -52.5 20t-40.5 26z" />
<glyph unicode="&#xfe;" horiz-adv-x="731" d="M-29 -297q-3 126 19.5 330.5t58 411.5t74.5 395t73 306t50 118q45 0 104.5 -21t69.5 -41q-5 -7 -20 -65.5t-35.5 -150t-39.5 -177t-39.5 -179t-27.5 -124.5q-2 -3 2 -10q108 325 225 325q67 0 122.5 -55t68.5 -160q8 -73 -3.5 -166t-41.5 -178q139 58 213 266 q3 4 16 -1.5t25 -17t12 -20.5q-32 -140 -117 -222.5t-194 -104.5q-88 -162 -224 -162q-104 0 -176 82q-56 -353 -34 -461q-7 -11 -35.5 -8.5t-61 10t-58 29.5t-26.5 51zM215 229h2q9 -54 32.5 -84t53.5 -30q36 0 76 59q-90 28 -143 102zM276 383q59 -79 146 -117 q33 85 53.5 189.5t18 178t-28.5 73.5q-54 0 -189 -324z" />
<glyph unicode="&#xff;" horiz-adv-x="708" d="M-150 -180q-18 163 161 191q91 14 301 -8q28 -3 32 -3q38 127 70 303q-81 -227 -199 -227q-78 0 -125.5 48t-58.5 126q-9 66 11 212t54.5 268t61.5 122q37 0 93.5 -30.5t76.5 -61.5q-25 -45 -74.5 -248t-40.5 -276q3 -33 23 -33q13 0 29.5 17t33 47.5t34 67.5t34.5 82 t32 86.5t29.5 84.5t23.5 72t17 54.5t8 26.5v2q62 0 117.5 -20t64.5 -49q2 -51 -32.5 -251.5t-94.5 -385.5q81 76 166 226t121 267q20 1 37.5 -11t15.5 -21q-21 -108 -83.5 -237.5t-148 -232.5t-159.5 -124q-143 -344 -329 -344q-100 0 -198 83t-104 177zM10 -190 q2 -54 38 -102t83 -48q100 0 184 250q-67 5 -114 5t-95.5 -8t-72.5 -32.5t-23 -64.5zM250 965q-15 50 7 107.5t73 57.5q33 0 71.5 -24t38.5 -62q0 -51 -21.5 -91t-60.5 -40q-26 0 -58.5 12.5t-49.5 39.5zM502 1005q1 35 23 65t55 30t74 -23.5t44 -64.5q-2 -49 -25.5 -89 t-68.5 -40q-24 0 -54.5 14t-37.5 45q-11 28 -10 63z" />
<glyph unicode="&#x152;" horiz-adv-x="1333" d="M27 432q0 200 57.5 391.5t162.5 318t228 126.5q80 0 163.5 -46t119.5 -85q12 -11 22 -29q64 65 137.5 105t137.5 40q65 0 141 -45q24 4 43 4q139 0 139 -129q0 -64 -29.5 -140.5t-74.5 -129.5t-84 -53q-22 0 -47 15t-31 30q33 22 58.5 84t25.5 137q0 48 -10 100 q-85 -11 -164 -63.5t-128.5 -130t-49.5 -156.5q0 -18 2.5 -39.5t9 -46t20.5 -41t33 -16.5h15q72 14 120 14h7q26 0 46.5 -41t20.5 -82q0 -23 -8 -28q-91 -2 -175 -36.5t-139 -97.5t-55 -139q0 -69 44.5 -112t129.5 -43q72 0 152 32t155 90t136 148.5t88 196.5q10 0 18 -1 t13.5 -2.5t10 -3t7 -5t4 -5.5t2 -6t0.5 -5.5v-5.5v-5q-33 -136 -107 -253t-170.5 -191.5t-209 -100t-223.5 21.5q-120 11 -189 107q-93 -96 -237 -96q-163 0 -250.5 116.5t-87.5 331.5zM219 406q0 -76 17.5 -140t59.5 -107.5t101 -43.5q82 0 158 82q-4 16 -4 53 q0 108 68.5 197t179.5 143q-66 42 -107.5 105t-42.5 136q0 70 35 138q-31 186 -131 186q-58 0 -118 -60t-107.5 -159.5t-78 -240t-30.5 -289.5z" />
<glyph unicode="&#x153;" horiz-adv-x="989" d="M23 231q-12 74 1 164t40.5 161.5t63.5 120t67 48.5h4q27 68 75 84q57 18 143.5 -22.5t119.5 -73.5l6 -6q78 116 159 116q28 0 58 -12q13 19 34 31t37 12q62 -16 91.5 -67t29.5 -123q0 -71 -26.5 -146.5t-71.5 -130.5t-103.5 -78t-123.5 10v-26q0 -70 35.5 -123t99.5 -53 q44 0 89.5 28.5t82 72.5t70 99.5t56.5 106t38 96.5q21 0 37.5 -11.5t19.5 -23.5q-3 -10 -8 -27.5t-24.5 -68t-42.5 -96t-61.5 -101.5t-81.5 -96.5t-103 -68t-125 -27.5q-141 0 -220 117q-87 -125 -215 -125q-102 0 -169.5 70t-81.5 169zM198 206q0 -112 58 -112 q60 0 118 129q62 136 78 294q16 160 -36 190q-11 6 -23 6q-29 0 -67 -33q24 -12 34 -26.5t0 -24.5q-57 -22 -109 -160q-54 -143 -53 -263zM633 377q1 0 3 1t3 1q42 -9 78 15.5t57 68t32.5 91t7.5 89.5t-21 59q-48 -28 -95.5 -123.5t-64.5 -201.5z" />
<glyph unicode="&#x178;" horiz-adv-x="835" d="M25 195q-14 111 20.5 352.5t84.5 437t79 195.5q35 0 93 -25t75 -55q-18 -35 -48.5 -146.5t-59 -251t-49.5 -272.5t-19.5 -223t30.5 -90q27 0 61.5 42t71 116.5t72.5 159t73.5 187t65.5 183t56 163.5t39 113q48 183 75 183q25 0 83 -19t79 -49q-26 -54 -89.5 -347 t-112 -627t-29.5 -451q-7 -15 -38 -17.5t-64.5 6t-60.5 30t-28 48.5q-6 184 62 619q-154 -451 -277 -451q-94 0 -165 55.5t-80 133.5zM350 1378q-15 50 7 108t73 58q33 0 72 -24t39 -62q0 -51 -21.5 -91t-60.5 -40q-27 0 -59.5 12t-49.5 39zM602 1418.5q1 34.5 23 64.5 t55 30t74.5 -23.5t44.5 -64.5q-2 -49 -25.5 -89t-68.5 -40q-24 0 -55 14.5t-38 45.5q-11 28 -10 62.5z" />
<glyph unicode="&#x2c6;" horiz-adv-x="464" d="M154 958q0 18 32.5 79t86 120.5t96.5 59.5q70 0 106 -50q31 -40 57 -113t23 -98q-4 -33 -65.5 -49t-83.5 -10q4 27 -15.5 116t-40.5 89t-72 -80.5t-61 -106.5q-17 0 -40 17t-23 26z" />
<glyph unicode="&#x2dc;" horiz-adv-x="483" d="M145 989q-3 60 34 114t102 54q25 0 53.5 -18t50 -39.5t45 -39.5t39.5 -18q24 0 38.5 18.5t12.5 39.5q0 17 -10 30q14 7 25 7q45 0 49 -72q5 -59 -27.5 -109.5t-95.5 -50.5q-29 0 -59.5 17.5t-51.5 38t-44 38t-38 17.5q-24 0 -39.5 -18.5t-15.5 -41.5q4 -16 8 -24 q-18 -6 -26 -6q-22 0 -35 18.5t-15 44.5z" />
<glyph unicode="&#x2000;" horiz-adv-x="819" />
<glyph unicode="&#x2001;" horiz-adv-x="1638" />
<glyph unicode="&#x2002;" horiz-adv-x="819" />
<glyph unicode="&#x2003;" horiz-adv-x="1638" />
<glyph unicode="&#x2004;" horiz-adv-x="546" />
<glyph unicode="&#x2005;" horiz-adv-x="409" />
<glyph unicode="&#x2006;" horiz-adv-x="273" />
<glyph unicode="&#x2007;" horiz-adv-x="273" />
<glyph unicode="&#x2008;" horiz-adv-x="204" />
<glyph unicode="&#x2009;" horiz-adv-x="327" />
<glyph unicode="&#x200a;" horiz-adv-x="91" />
<glyph unicode="&#x2010;" horiz-adv-x="798" d="M83 609q4 20 21 22q7 -25 92 -27t226 7.5t188 9.5q22 0 45 -45t28 -84t-7 -46q-28 9 -99.5 10t-142.5 -3t-149 -8.5t-105 -4.5q-37 0 -72 65q-33 63 -25 104z" />
<glyph unicode="&#x2011;" horiz-adv-x="798" d="M83 609q4 20 21 22q7 -25 92 -27t226 7.5t188 9.5q22 0 45 -45t28 -84t-7 -46q-28 9 -99.5 10t-142.5 -3t-149 -8.5t-105 -4.5q-37 0 -72 65q-33 63 -25 104z" />
<glyph unicode="&#x2012;" horiz-adv-x="798" d="M83 609q4 20 21 22q7 -25 92 -27t226 7.5t188 9.5q22 0 45 -45t28 -84t-7 -46q-28 9 -99.5 10t-142.5 -3t-149 -8.5t-105 -4.5q-37 0 -72 65q-33 63 -25 104z" />
<glyph unicode="&#x2013;" horiz-adv-x="1005" d="M85 609q4 20 21 22q7 -25 140.5 -27t334 7.5t236.5 9.5q22 0 45 -45t28 -84t-7 -46q-28 9 -132 10t-212 -3t-220 -8.5t-137 -4.5q-37 0 -72 65q-33 63 -25 104z" />
<glyph unicode="&#x2014;" horiz-adv-x="1185" d="M85 609q4 20 21 22q7 -25 183.5 -27t428 7.5t279.5 9.5q22 0 45 -45t28 -84t-7 -46q-28 9 -160.5 10t-273.5 -3t-282 -8.5t-165 -4.5q-37 0 -72 65q-33 63 -25 104z" />
<glyph unicode="&#x2018;" horiz-adv-x="382" d="M131 958q-4 78 78 181q69 87 136 114q57 23 75 -20q-31 0 -78.5 -167t-40.5 -204q0 -26 -56 -4q-62 26 -97 67q-16 18 -17 33z" />
<glyph unicode="&#x2019;" horiz-adv-x="393" d="M123 885q31 0 78.5 166.5t40.5 203.5q0 26 56 4q62 -26 97 -67q16 -18 17 -33q4 -78 -78 -181q-69 -86 -136 -113q-57 -23 -75 20z" />
<glyph unicode="&#x201a;" horiz-adv-x="501" d="M45 -141q31 0 78.5 166.5t40.5 203.5q0 26 56 4q62 -26 97 -67q16 -18 17 -33q4 -78 -78 -181q-69 -86 -136 -113q-57 -23 -75 20z" />
<glyph unicode="&#x201c;" horiz-adv-x="624" d="M131 958q-4 78 78 181q69 87 136 114q57 23 75 -20q-31 0 -78.5 -167t-40.5 -204q0 -26 -56 -4q-62 26 -97 67q-16 18 -17 33zM373 958q-4 78 78 181q69 87 136 114q57 23 75 -20q-31 0 -78.5 -167t-40.5 -204q0 -26 -56 -4q-62 26 -97 67q-16 18 -17 33z" />
<glyph unicode="&#x201d;" horiz-adv-x="634" d="M123 885q31 0 78.5 166.5t40.5 203.5q0 26 56 4q62 -26 97 -67q16 -18 17 -33q4 -78 -78 -181q-69 -86 -136 -113q-57 -23 -75 20zM365 885q31 0 78 166.5t40 203.5q0 26 56 4q62 -26 97 -67q16 -18 17 -33q4 -78 -77 -180q-68 -86 -135 -113q-58 -24 -76 19z" />
<glyph unicode="&#x201e;" horiz-adv-x="743" d="M45 -141q31 0 78.5 166.5t40.5 203.5q0 26 56 4q62 -26 97 -67q16 -18 17 -33q4 -78 -78 -181q-69 -86 -136 -113q-57 -23 -75 20zM287 -141q31 0 78.5 166.5t40.5 203.5q0 27 57 3q62 -25 96 -66q15 -19 16 -33q4 -78 -77 -180q-68 -86 -135 -113q-58 -24 -76 19z" />
<glyph unicode="&#x2022;" horiz-adv-x="534" d="M104 554.5q3 44.5 16 86t45.5 71t74.5 29.5q35 0 77 -15t78 -51t37 -83q0 -51 -14.5 -97.5t-49 -81t-83.5 -34.5q-26 0 -56.5 8t-64.5 32t-47 60q-16 31 -13 75.5z" />
<glyph unicode="&#x2026;" horiz-adv-x="1228" d="M139 122q3 42 30.5 78t68.5 36q25 0 55 -10.5t55.5 -36.5t26.5 -60q0 -59 -27.5 -106.5t-79.5 -47.5q-18 0 -40 5.5t-47 23t-34 43.5q-11 33 -8 75zM501.5 122q2.5 42 30 78t68.5 36q25 0 55 -10.5t55.5 -36.5t26.5 -60q0 -59 -27 -106.5t-79 -47.5q-18 0 -40 5.5t-47 23 t-34 43.5q-11 33 -8.5 75zM868.5 122q2.5 42 30 78t68.5 36q25 0 55 -10.5t55.5 -36.5t26.5 -60q0 -59 -27.5 -106.5t-79.5 -47.5q-18 0 -40 5.5t-46.5 23t-33.5 43.5q-11 33 -8.5 75z" />
<glyph unicode="&#x202f;" horiz-adv-x="327" />
<glyph unicode="&#x2039;" horiz-adv-x="559" d="M51 569q33 16 191.5 154t158.5 172q0 6 13 6q27 0 60.5 -44t33.5 -87q0 -26 -74.5 -91t-154.5 -112q55 -58 91 -124t36 -115q0 -29 -16 -59t-46 -38q-4 31 -120.5 158t-172.5 180z" />
<glyph unicode="&#x203a;" horiz-adv-x="567" d="M51 362q0 26 74 91t154 112q-55 58 -91 124.5t-36 115.5q0 29 16 58.5t47 37.5q1 -17 40.5 -66.5t97.5 -111.5t92.5 -98t60.5 -62q-33 -16 -191.5 -153.5t-158.5 -171.5q0 -7 -13 -7q-26 0 -59 43.5t-33 87.5z" />
<glyph unicode="&#x205f;" horiz-adv-x="409" />
<glyph unicode="&#x20ac;" horiz-adv-x="880" d="M41 477q0 25 6 37q19 -8 119 -8q0 28 8 90h-24q-34 0 -49 25.5t-15 58.5q0 25 6 37q16 -8 103 -8q47 201 157.5 335t239.5 134q59 0 137 -33q22 0 46.5 -8t49 -25t40.5 -49.5t16 -75.5q0 -83 -48.5 -153t-105.5 -70q-20 0 -34 10t-19 25q49 65 49 190q0 45 -6 82 q-99 -2 -190 -100t-136 -260q42 1 89 2.5t75 2.5t31 1q27 0 39 -25t12 -59q0 -23 -8 -51q-10 8 -262 12q-6 -41 -9 -86q39 1 82.5 2.5t70 2.5t30.5 1q53 0 53 -80q0 -23 -8 -51q-14 8 -230 12q2 -46 11 -82t27.5 -69.5t53.5 -51.5t84 -18q135 0 263 135h6q20 0 20 -37 q0 -83 -92.5 -155t-230.5 -72t-227 84.5t-103 267.5h-62q-36 0 -50.5 24t-14.5 56z" />
<glyph unicode="&#x2122;" horiz-adv-x="1021" d="M164 1192q-2 26 10 31q0 -11 127 -4q10 20 16 20q25 0 72 -14q19 1 58 3.5t51 2.5q14 0 24 -31.5t9 -58.5t-11 -31q-19 7 -106 4q-69 -290 -62 -393q-47 -3 -87 6.5t-44 32.5q-3 30 13 138.5t38 211.5l-53 -4q-18 0 -35.5 30t-19.5 56zM498 760q-3 57 39 262t65 205 q21 0 51 -8.5t45 -18.5q47 -6 66 -22q3 -27 8 -125t8 -129q111 310 127 329q46 4 74 -18q20 -2 44 -9.5t28 -15.5q-15 -27 -46.5 -230t-25.5 -280q-46 -5 -88.5 4t-46.5 31q-1 13 6 55.5t19.5 111t19.5 116.5q-18 -48 -41.5 -100.5t-39 -83t-17.5 -31.5q-6 -4 -30.5 -5 t-52 5.5t-34.5 21.5q-11 25 -19 195q-45 -205 -39 -297q-47 -3 -82 5.5t-38 31.5z" />
<glyph unicode="&#x25fc;" horiz-adv-x="829" d="M0 0v829h829v-829h-829z" />
</font>
</defs>
</svg>
